ISO-10303-21;
HEADER;
FILE_DESCRIPTION (( 'STEP AP214' ),
    '1' );
FILE_NAME ('Calf_Body.STEP',
    '2026-07-28T10:15:00',
    ( '' ),
    ( '' ),
    'SwSTEP 2.0',
    'SolidWorks 2024',
    '' );
FILE_SCHEMA (( 'AUTOMOTIVE_DESIGN' ));
ENDSEC;

DATA;
#1 = DIRECTION ( 'NONE',  ( -1.156482317317871725E-16, 0.000000000000000000, -1.000000000000000000 ) ) ;
#2 = ORIENTED_EDGE ( 'NONE', *, *, #440, .F. ) ;
#3 = VECTOR ( 'NONE', #191, 1000.000000000000000 ) ;
#4 = CARTESIAN_POINT ( 'NONE',  ( 2.939152317953647342E-14, 17.69999999999999929, 59.99999999999999289 ) ) ;
#5 = CARTESIAN_POINT ( 'NONE',  ( 2.204364238465235822E-14, 17.69999999999999929, -60.00000000000000711 ) ) ;
#6 = DIRECTION ( 'NONE',  ( -0.000000000000000000, -1.000000000000000000, -0.000000000000000000 ) ) ;
#7 = CARTESIAN_POINT ( 'NONE',  ( 2.204364238465235822E-14, 11.70000000000000107, -60.00000000000000711 ) ) ;
#8 = SURFACE_STYLE_FILL_AREA ( #329 ) ;
#9 = PLANE ( 'NONE',  #426 ) ;
#10 = VECTOR ( 'NONE', #211, 1000.000000000000000 ) ;
#11 = DIRECTION ( 'NONE',  ( 0.000000000000000000, 0.000000000000000000, 1.000000000000000000 ) ) ;
#12 = FACE_BOUND ( 'NONE', #339, .T. ) ;
#13 = CARTESIAN_POINT ( 'NONE',  ( 2.204364238465235822E-14, 17.69999999999999929, -60.00000000000000711 ) ) ;
#14 = DIRECTION ( 'NONE',  ( 0.000000000000000000, 1.000000000000000000, 0.000000000000000000 ) ) ;
#15 = AXIS2_PLACEMENT_3D ( 'NONE', #122, #227, #365 ) ;
#16 = ORIENTED_EDGE ( 'NONE', *, *, #70, .T. ) ;
#17 = DIRECTION ( 'NONE',  ( 0.000000000000000000, 0.000000000000000000, 1.000000000000000000 ) ) ;
#18 = ORIENTED_EDGE ( 'NONE', *, *, #425, .F. ) ;
#19 = EDGE_CURVE ( 'NONE', #445, #379, #320, .T. ) ;
#20 = ADVANCED_BREP_SHAPE_REPRESENTATION ( 'Calf_Body', ( #442, #289 ), #149 ) ;
#21 = EDGE_LOOP ( 'NONE', ( #246, #237, #273, #151 ) ) ;
#22 = SHAPE_DEFINITION_REPRESENTATION ( #94, #20 ) ;
#23 = CIRCLE ( 'NONE', #441, 11.99999999999998934 ) ;
#24 = ORIENTED_EDGE ( 'NONE', *, *, #173, .F. ) ;
#25 = AXIS2_PLACEMENT_3D ( 'NONE', #89, #152, #165 ) ;
#26 = EDGE_CURVE ( 'NONE', #113, #449, #307, .T. ) ;
#27 = ORIENTED_EDGE ( 'NONE', *, *, #433, .F. ) ;
#28 = DIRECTION ( 'NONE',  ( 0.000000000000000000, 0.000000000000000000, -1.000000000000000000 ) ) ;
#29 = EDGE_LOOP ( 'NONE', ( #378, #422, #244, #306 ) ) ;
#30 = CARTESIAN_POINT ( 'NONE',  ( 0.000000000000000000, 0.000000000000000000, 0.000000000000000000 ) ) ;
#31 = CARTESIAN_POINT ( 'NONE',  ( 2.964257577336167921E-14, 17.69999999999999929, 62.04999999999999716 ) ) ;
#32 = CARTESIAN_POINT ( 'NONE',  ( 2.204364238465235822E-14, 17.69999999999999929, -60.00000000000000711 ) ) ;
#33 = VECTOR ( 'NONE', #349, 1000.000000000000000 ) ;
#34 = STYLED_ITEM ( 'NONE', ( #427 ), #442 ) ;
#35 = LINE ( 'NONE', #31, #278 ) ;
#36 = ORIENTED_EDGE ( 'NONE', *, *, #370, .T. ) ;
#37 = EDGE_CURVE ( 'NONE', #204, #137, #251, .T. ) ;
#38 = DIRECTION ( 'NONE',  ( -0.000000000000000000, -1.000000000000000000, -0.000000000000000000 ) ) ;
#39 = DIRECTION ( 'NONE',  ( 1.156482317317871725E-16, -0.000000000000000000, 1.000000000000000000 ) ) ;
#40 = DIRECTION ( 'NONE',  ( 0.000000000000000000, 0.000000000000000000, 1.000000000000000000 ) ) ;
#41 = EDGE_LOOP ( 'NONE', ( #336, #376, #218, #106 ) ) ;
#42 = AXIS2_PLACEMENT_3D ( 'NONE', #351, #316, #40 ) ;
#43 = DIRECTION ( 'NONE',  ( -0.000000000000000000, -1.000000000000000000, -0.000000000000000000 ) ) ;
#44 = CARTESIAN_POINT ( 'NONE',  ( -11.99999999999996980, 17.69999999999999929, 59.99999999999999289 ) ) ;
#45 = LINE ( 'NONE', #128, #63 ) ;
#46 = PLANE ( 'NONE',  #116 ) ;
#47 = DIRECTION ( 'NONE',  ( 0.000000000000000000, 0.000000000000000000, -1.000000000000000000 ) ) ;
#48 = CARTESIAN_POINT ( 'NONE',  ( 2.204364238465235822E-14, 11.70000000000000107, -56.45000000000000995 ) ) ;
#49 = ADVANCED_FACE ( 'NONE', ( #286, #429 ), #46, .T. ) ;
#50 = CIRCLE ( 'NONE', #428, 2.050000000000003375 ) ;
#51 = CARTESIAN_POINT ( 'NONE',  ( 12.00000000000001599, 17.69999999999999929, -60.00000000000000000 ) ) ;
#52 = DIRECTION ( 'NONE',  ( 0.000000000000000000, 1.000000000000000000, 0.000000000000000000 ) ) ;
#53 = CARTESIAN_POINT ( 'NONE',  ( 2.204364238465235822E-14, 17.69999999999999929, -72.00000000000000000 ) ) ;
#54 = AXIS2_PLACEMENT_3D ( 'NONE', #32, #141, #143 ) ;
#55 = ORIENTED_EDGE ( 'NONE', *, *, #240, .T. ) ;
#56 = DIRECTION ( 'NONE',  ( 0.000000000000000000, 1.000000000000000000, 0.000000000000000000 ) ) ;
#57 = ORIENTED_EDGE ( 'NONE', *, *, #446, .T. ) ;
#58 = ORIENTED_EDGE ( 'NONE', *, *, #440, .T. ) ;
#59 = CARTESIAN_POINT ( 'NONE',  ( -11.99999999999998224, 0.000000000000000000, -59.99999999999999289 ) ) ;
#60 = EDGE_CURVE ( 'NONE', #146, #357, #298, .T. ) ;
#61 = AXIS2_PLACEMENT_3D ( 'NONE', #243, #66, #1 ) ;
#62 = VERTEX_POINT ( 'NONE', #297 ) ;
#63 = VECTOR ( 'NONE', #268, 1000.000000000000000 ) ;
#64 =( NAMED_UNIT ( * ) PLANE_ANGLE_UNIT ( ) SI_UNIT ( $, .RADIAN. ) );
#65 = DIRECTION ( 'NONE',  ( -0.000000000000000000, -1.000000000000000000, -0.000000000000000000 ) ) ;
#66 = DIRECTION ( 'NONE',  ( 1.000000000000000000, 0.000000000000000000, -1.156482317317871725E-16 ) ) ;
#67 = ORIENTED_EDGE ( 'NONE', *, *, #305, .T. ) ;
#68 = CARTESIAN_POINT ( 'NONE',  ( 2.247839199834966989E-14, 11.70000000000000107, -63.55000000000001137 ) ) ;
#69 = ORIENTED_EDGE ( 'NONE', *, *, #274, .F. ) ;
#70 = EDGE_CURVE ( 'NONE', #137, #204, #107, .T. ) ;
#71 = CIRCLE ( 'NONE', #42, 2.050000000000003375 ) ;
#72 = CIRCLE ( 'NONE', #333, 3.549999999999997602 ) ;
#73 = FACE_OUTER_BOUND ( 'NONE', #29, .T. ) ;
#74 = VERTEX_POINT ( 'NONE', #155 ) ;
#75 = CARTESIAN_POINT ( 'NONE',  ( 12.00000000000003020, 17.69999999999999929, 59.99999999999999289 ) ) ;
#76 = ORIENTED_EDGE ( 'NONE', *, *, #263, .F. ) ;
#77 = ADVANCED_FACE ( 'NONE', ( #330 ), #9, .F. ) ;
#78 = LINE ( 'NONE', #360, #374 ) ;
#79 = PLANE ( 'NONE',  #15 ) ;
#80 = CIRCLE ( 'NONE', #367, 2.050000000000003375 ) ;
#81 = CARTESIAN_POINT ( 'NONE',  ( 2.204364238465235822E-14, 0.000000000000000000, -72.00000000000000000 ) ) ;
#82 = FACE_OUTER_BOUND ( 'NONE', #41, .T. ) ;
#83 = FACE_BOUND ( 'NONE', #317, .T. ) ;
#84 = DIRECTION ( 'NONE',  ( 0.000000000000000000, 0.000000000000000000, -1.000000000000000000 ) ) ;
#85 = AXIS2_PLACEMENT_3D ( 'NONE', #195, #334, #262 ) ;
#86 = DIRECTION ( 'NONE',  ( 0.000000000000000000, 0.000000000000000000, 1.000000000000000000 ) ) ;
#87 = CARTESIAN_POINT ( 'NONE',  ( 2.204364238465235822E-14, 0.000000000000000000, -60.00000000000000711 ) ) ;
#88 = ADVANCED_FACE ( 'NONE', ( #266, #188, #83 ), #79, .F. ) ;
#89 = CARTESIAN_POINT ( 'NONE',  ( 2.204364238465235822E-14, 0.000000000000000000, -60.00000000000000711 ) ) ;
#90 = APPLICATION_PROTOCOL_DEFINITION ( 'draft international standard', 'automotive_design', 1998, #358 ) ;
#91 = VERTEX_POINT ( 'NONE', #397 ) ;
#92 = EDGE_CURVE ( 'NONE', #100, #204, #231, .T. ) ;
#93 = VERTEX_POINT ( 'NONE', #51 ) ;
#94 = PRODUCT_DEFINITION_SHAPE ( 'NONE', 'NONE',  #285 ) ;
#95 = DIRECTION ( 'NONE',  ( 0.000000000000000000, 0.000000000000000000, 1.000000000000000000 ) ) ;
#96 = AXIS2_PLACEMENT_3D ( 'NONE', #253, #38, #318 ) ;
#97 = ORIENTED_EDGE ( 'NONE', *, *, #315, .T. ) ;
#98 = CIRCLE ( 'NONE', #25, 2.050000000000003375 ) ;
#99 = CARTESIAN_POINT ( 'NONE',  ( 2.229469497847756717E-14, 0.000000000000000000, -57.95000000000000284 ) ) ;
#100 = VERTEX_POINT ( 'NONE', #332 ) ;
#101 =( NAMED_UNIT ( * ) SI_UNIT ( $, .STERADIAN. ) SOLID_ANGLE_UNIT ( ) );
#102 = LINE ( 'NONE', #288, #156 ) ;
#103 = ADVANCED_FACE ( 'NONE', ( #12, #369, #264 ), #193, .T. ) ;
#104 = ORIENTED_EDGE ( 'NONE', *, *, #139, .T. ) ;
#105 = LINE ( 'NONE', #68, #10 ) ;
#106 = ORIENTED_EDGE ( 'NONE', *, *, #305, .F. ) ;
#107 = CIRCLE ( 'NONE', #85, 3.549999999999997602 ) ;
#108 = COLOUR_RGB ( '',0.7921568627450980005, 0.8196078431372548767, 0.9333333333333333481 ) ;
#109 = LINE ( 'NONE', #75, #203 ) ;
#110 = ORIENTED_EDGE ( 'NONE', *, *, #325, .F. ) ;
#111 = ADVANCED_FACE ( 'NONE', ( #124 ), #402, .F. ) ;
#112 = CARTESIAN_POINT ( 'NONE',  ( -11.99999999999996980, 0.000000000000000000, 59.99999999999999289 ) ) ;
#113 = VERTEX_POINT ( 'NONE', #431 ) ;
#114 = CARTESIAN_POINT ( 'NONE',  ( 2.247839199834966989E-14, 11.70000000000000107, -63.55000000000001137 ) ) ;
#115 = CARTESIAN_POINT ( 'NONE',  ( 12.00000000000003020, 17.69999999999999929, 59.99999999999999289 ) ) ;
#116 = AXIS2_PLACEMENT_3D ( 'NONE', #7, #52, #160 ) ;
#117 = AXIS2_PLACEMENT_3D ( 'NONE', #190, #185, #158 ) ;
#118 = CARTESIAN_POINT ( 'NONE',  ( 2.204364238465235822E-14, 11.70000000000000107, -60.00000000000000711 ) ) ;
#119 = DIRECTION ( 'NONE',  ( -0.000000000000000000, 1.000000000000000000, -0.000000000000000000 ) ) ;
#120 = ADVANCED_FACE ( 'NONE', ( #401 ), #302, .F. ) ;
#121 = PRODUCT ( 'Calf_Body', 'Calf_Body', '', ( #343 ) ) ;
#122 = CARTESIAN_POINT ( 'NONE',  ( 2.939152317953647342E-14, 0.000000000000000000, 59.99999999999999289 ) ) ;
#123 =( GEOMETRIC_REPRESENTATION_CONTEXT ( 3 ) GLOBAL_UNCERTAINTY_ASSIGNED_CONTEXT ( ( #347 ) ) GLOBAL_UNIT_ASSIGNED_CONTEXT ( ( #430, #226, #101 ) ) REPRESENTATION_CONTEXT ( 'NONE', 'WORKASPACE' ) );
#124 = FACE_OUTER_BOUND ( 'NONE', #256, .T. ) ;
#125 = CARTESIAN_POINT ( 'NONE',  ( 2.229469497847756717E-14, 11.70000000000000107, -57.95000000000000284 ) ) ;
#126 = PRODUCT_RELATED_PRODUCT_CATEGORY ( 'part', '', ( #121 ) ) ;
#127 = ORIENTED_EDGE ( 'NONE', *, *, #299, .F. ) ;
#128 = CARTESIAN_POINT ( 'NONE',  ( 12.00000000000001599, 17.69999999999999929, -60.00000000000000000 ) ) ;
#129 = ORIENTED_EDGE ( 'NONE', *, *, #236, .T. ) ;
#130 = VECTOR ( 'NONE', #294, 1000.000000000000000 ) ;
#131 = DIRECTION ( 'NONE',  ( 0.000000000000000000, 0.000000000000000000, 1.000000000000000000 ) ) ;
#132 = ORIENTED_EDGE ( 'NONE', *, *, #139, .F. ) ;
#133 = DIRECTION ( 'NONE',  ( -2.023844055306275026E-16, 0.000000000000000000, -1.000000000000000000 ) ) ;
#134 = ORIENTED_EDGE ( 'NONE', *, *, #147, .F. ) ;
#135 = CARTESIAN_POINT ( 'NONE',  ( 2.204364238465235822E-14, 17.69999999999999929, -62.05000000000001137 ) ) ;
#136 = VECTOR ( 'NONE', #215, 1000.000000000000000 ) ;
#137 = VERTEX_POINT ( 'NONE', #435 ) ;
#138 = VECTOR ( 'NONE', #133, 1000.000000000000000 ) ;
#139 = EDGE_CURVE ( 'NONE', #62, #314, #229, .T. ) ;
#140 = DIRECTION ( 'NONE',  ( -0.000000000000000000, -1.000000000000000000, -0.000000000000000000 ) ) ;
#141 = DIRECTION ( 'NONE',  ( 0.000000000000000000, 1.000000000000000000, 0.000000000000000000 ) ) ;
#142 = CYLINDRICAL_SURFACE ( 'NONE', #168, 3.549999999999997602 ) ;
#143 = DIRECTION ( 'NONE',  ( 0.000000000000000000, 0.000000000000000000, 1.000000000000000000 ) ) ;
#144 = CARTESIAN_POINT ( 'NONE',  ( 12.00000000000003020, 0.000000000000000000, 59.99999999999999289 ) ) ;
#145 = PRODUCT_DEFINITION_CONTEXT ( 'detailed design', #328, 'design' ) ;
#146 = VERTEX_POINT ( 'NONE', #361 ) ;
#147 = EDGE_CURVE ( 'NONE', #449, #281, #220, .T. ) ;
#148 = AXIS2_PLACEMENT_3D ( 'NONE', #4, #247, #386 ) ;
#149 =( GEOMETRIC_REPRESENTATION_CONTEXT ( 3 ) GLOBAL_UNCERTAINTY_ASSIGNED_CONTEXT ( ( #319 ) ) GLOBAL_UNIT_ASSIGNED_CONTEXT ( ( #408, #64, #447 ) ) REPRESENTATION_CONTEXT ( 'NONE', 'WORKASPACE' ) );
#150 = CARTESIAN_POINT ( 'NONE',  ( 2.204364238465235822E-14, 11.70000000000000107, -60.00000000000000711 ) ) ;
#151 = ORIENTED_EDGE ( 'NONE', *, *, #257, .T. ) ;
#152 = DIRECTION ( 'NONE',  ( 0.000000000000000000, 1.000000000000000000, 0.000000000000000000 ) ) ;
#153 = CYLINDRICAL_SURFACE ( 'NONE', #265, 11.99999999999998934 ) ;
#154 = CARTESIAN_POINT ( 'NONE',  ( 2.939152317953647342E-14, 0.000000000000000000, 59.99999999999999289 ) ) ;
#155 = CARTESIAN_POINT ( 'NONE',  ( 2.204364238465235822E-14, 0.000000000000000000, -62.05000000000001137 ) ) ;
#156 = VECTOR ( 'NONE', #280, 1000.000000000000000 ) ;
#157 = ADVANCED_FACE ( 'NONE', ( #327 ), #153, .T. ) ;
#158 = DIRECTION ( 'NONE',  ( 0.000000000000000000, 0.000000000000000000, 1.000000000000000000 ) ) ;
#159 = CARTESIAN_POINT ( 'NONE',  ( 2.204364238465235822E-14, 11.70000000000000107, -60.00000000000000711 ) ) ;
#160 = DIRECTION ( 'NONE',  ( 0.000000000000000000, -0.000000000000000000, 1.000000000000000000 ) ) ;
#161 = DIRECTION ( 'NONE',  ( 0.000000000000000000, -0.000000000000000000, 1.000000000000000000 ) ) ;
#162 = ADVANCED_FACE ( 'NONE', ( #82 ), #224, .F. ) ;
#163 = AXIS2_PLACEMENT_3D ( 'NONE', #438, #407, #362 ) ;
#164 = ORIENTED_EDGE ( 'NONE', *, *, #355, .T. ) ;
#165 = DIRECTION ( 'NONE',  ( 0.000000000000000000, 0.000000000000000000, 1.000000000000000000 ) ) ;
#166 = EDGE_LOOP ( 'NONE', ( #213, #387, #202, #412, #345 ) ) ;
#167 = ORIENTED_EDGE ( 'NONE', *, *, #400, .T. ) ;
#168 = AXIS2_PLACEMENT_3D ( 'NONE', #174, #282, #95 ) ;
#169 = ORIENTED_EDGE ( 'NONE', *, *, #92, .F. ) ;
#170 = ORIENTED_EDGE ( 'NONE', *, *, #355, .F. ) ;
#171 = CARTESIAN_POINT ( 'NONE',  ( 2.204364238465235822E-14, 17.69999999999999929, -56.45000000000000995 ) ) ;
#172 = ORIENTED_EDGE ( 'NONE', *, *, #269, .T. ) ;
#173 = EDGE_CURVE ( 'NONE', #146, #74, #448, .T. ) ;
#174 = CARTESIAN_POINT ( 'NONE',  ( 2.204364238465235822E-14, 11.70000000000000107, -60.00000000000000711 ) ) ;
#175 = AXIS2_PLACEMENT_3D ( 'NONE', #13, #363, #84 ) ;
#176 = ORIENTED_EDGE ( 'NONE', *, *, #19, .T. ) ;
#177 = CARTESIAN_POINT ( 'NONE',  ( 2.204364238465235822E-14, 17.69999999999999929, -60.00000000000000711 ) ) ;
#178 = ORIENTED_EDGE ( 'NONE', *, *, #92, .T. ) ;
#179 = ADVANCED_FACE ( 'NONE', ( #182 ), #142, .F. ) ;
#180 = DIRECTION ( 'NONE',  ( 0.000000000000000000, 1.000000000000000000, 0.000000000000000000 ) ) ;
#181 = CARTESIAN_POINT ( 'NONE',  ( -11.99999999999996980, 0.000000000000000000, 59.99999999999999289 ) ) ;
#182 = FACE_OUTER_BOUND ( 'NONE', #308, .T. ) ;
#183 = VERTEX_POINT ( 'NONE', #99 ) ;
#184 = AXIS2_PLACEMENT_3D ( 'NONE', #335, #14, #161 ) ;
#185 = DIRECTION ( 'NONE',  ( 0.000000000000000000, 1.000000000000000000, 0.000000000000000000 ) ) ;
#186 = DIRECTION ( 'NONE',  ( 1.156482317317871725E-16, -0.000000000000000000, 1.000000000000000000 ) ) ;
#187 = FILL_AREA_STYLE_COLOUR ( '', #108 ) ;
#188 = FACE_BOUND ( 'NONE', #292, .T. ) ;
#189 = EDGE_CURVE ( 'NONE', #200, #314, #35, .T. ) ;
#190 = CARTESIAN_POINT ( 'NONE',  ( 2.204364238465235822E-14, 11.70000000000000107, -60.00000000000000711 ) ) ;
#191 = DIRECTION ( 'NONE',  ( -0.000000000000000000, 1.000000000000000000, -0.000000000000000000 ) ) ;
#192 = VECTOR ( 'NONE', #186, 1000.000000000000000 ) ;
#193 = PLANE ( 'NONE',  #184 ) ;
#194 = ADVANCED_FACE ( 'NONE', ( #245 ), #322, .F. ) ;
#195 = CARTESIAN_POINT ( 'NONE',  ( 2.204364238465235822E-14, 17.69999999999999929, -60.00000000000000711 ) ) ;
#196 = CARTESIAN_POINT ( 'NONE',  ( 2.229469497847756717E-14, 17.69999999999999929, -57.95000000000000284 ) ) ;
#197 = AXIS2_PLACEMENT_3D ( 'NONE', #87, #56, #199 ) ;
#198 = EDGE_LOOP ( 'NONE', ( #129, #57, #272, #373, #394 ) ) ;
#199 = DIRECTION ( 'NONE',  ( 0.000000000000000000, 0.000000000000000000, 1.000000000000000000 ) ) ;
#200 = VERTEX_POINT ( 'NONE', #217 ) ;
#201 = EDGE_CURVE ( 'NONE', #383, #410, #23, .T. ) ;
#202 = ORIENTED_EDGE ( 'NONE', *, *, #400, .F. ) ;
#203 = VECTOR ( 'NONE', #276, 1000.000000000000000 ) ;
#204 = VERTEX_POINT ( 'NONE', #171 ) ;
#205 = DIRECTION ( 'NONE',  ( 1.000000000000000000, 0.000000000000000000, 0.000000000000000000 ) ) ;
#206 = CYLINDRICAL_SURFACE ( 'NONE', #337, 2.050000000000003375 ) ;
#207 = ADVANCED_FACE ( 'NONE', ( #382 ), #206, .F. ) ;
#208 = DIRECTION ( 'NONE',  ( 0.000000000000000000, 1.000000000000000000, 0.000000000000000000 ) ) ;
#209 = CARTESIAN_POINT ( 'NONE',  ( 2.939152317953647342E-14, 17.69999999999999929, 59.99999999999999289 ) ) ;
#210 = ORIENTED_EDGE ( 'NONE', *, *, #26, .F. ) ;
#211 = DIRECTION ( 'NONE',  ( -0.000000000000000000, 1.000000000000000000, -0.000000000000000000 ) ) ;
#212 = CIRCLE ( 'NONE', #249, 2.050000000000003375 ) ;
#213 = ORIENTED_EDGE ( 'NONE', *, *, #409, .F. ) ;
#214 = EDGE_CURVE ( 'NONE', #91, #383, #415, .T. ) ;
#215 = DIRECTION ( 'NONE',  ( -2.023844055306275026E-16, 0.000000000000000000, -1.000000000000000000 ) ) ;
#216 = ORIENTED_EDGE ( 'NONE', *, *, #60, .T. ) ;
#217 = CARTESIAN_POINT ( 'NONE',  ( 2.964257577336167921E-14, 17.69999999999999929, 62.04999999999999716 ) ) ;
#218 = ORIENTED_EDGE ( 'NONE', *, *, #230, .T. ) ;
#219 = LINE ( 'NONE', #196, #450 ) ;
#220 = LINE ( 'NONE', #44, #192 ) ;
#221 = AXIS2_PLACEMENT_3D ( 'NONE', #159, #119, #300 ) ;
#222 = PRODUCT_DEFINITION_FORMATION_WITH_SPECIFIED_SOURCE ( 'ANY', '', #121, .NOT_KNOWN. ) ;
#223 = DIRECTION ( 'NONE',  ( -0.000000000000000000, -1.000000000000000000, -0.000000000000000000 ) ) ;
#224 = CYLINDRICAL_SURFACE ( 'NONE', #271, 2.050000000000003375 ) ;
#225 = ADVANCED_FACE ( 'NONE', ( #309 ), #451, .F. ) ;
#226 =( NAMED_UNIT ( * ) PLANE_ANGLE_UNIT ( ) SI_UNIT ( $, .RADIAN. ) );
#227 = DIRECTION ( 'NONE',  ( 0.000000000000000000, 1.000000000000000000, 0.000000000000000000 ) ) ;
#228 = CARTESIAN_POINT ( 'NONE',  ( 2.939152317953647342E-14, 0.000000000000000000, 59.99999999999999289 ) ) ;
#229 = CIRCLE ( 'NONE', #380, 2.050000000000003375 ) ;
#230 = EDGE_CURVE ( 'NONE', #437, #62, #102, .T. ) ;
#231 = LINE ( 'NONE', #48, #3 ) ;
#232 = CARTESIAN_POINT ( 'NONE',  ( 2.939152317953647342E-14, 17.69999999999999929, 59.99999999999999289 ) ) ;
#233 = DIRECTION ( 'NONE',  ( 0.000000000000000000, 1.000000000000000000, 0.000000000000000000 ) ) ;
#234 = ORIENTED_EDGE ( 'NONE', *, *, #60, .F. ) ;
#235 = FACE_OUTER_BOUND ( 'NONE', #414, .T. ) ;
#236 = EDGE_CURVE ( 'NONE', #281, #385, #241, .T. ) ;
#237 = ORIENTED_EDGE ( 'NONE', *, *, #370, .F. ) ;
#238 = ORIENTED_EDGE ( 'NONE', *, *, #37, .F. ) ;
#239 = CARTESIAN_POINT ( 'NONE',  ( -11.99999999999998224, 17.69999999999999929, -59.99999999999999289 ) ) ;
#240 = EDGE_CURVE ( 'NONE', #74, #183, #212, .T. ) ;
#241 = CIRCLE ( 'NONE', #148, 12.00000000000000355 ) ;
#242 = CIRCLE ( 'NONE', #388, 12.00000000000000355 ) ;
#243 = CARTESIAN_POINT ( 'NONE',  ( -11.99999999999996980, 17.69999999999999929, 59.99999999999999289 ) ) ;
#244 = ORIENTED_EDGE ( 'NONE', *, *, #236, .F. ) ;
#245 = FACE_OUTER_BOUND ( 'NONE', #416, .T. ) ;
#246 = ORIENTED_EDGE ( 'NONE', *, *, #214, .T. ) ;
#247 = DIRECTION ( 'NONE',  ( 0.000000000000000000, 1.000000000000000000, 0.000000000000000000 ) ) ;
#248 = ORIENTED_EDGE ( 'NONE', *, *, #230, .F. ) ;
#249 = AXIS2_PLACEMENT_3D ( 'NONE', #413, #419, #411 ) ;
#250 = DIRECTION ( 'NONE',  ( 0.000000000000000000, 0.000000000000000000, 1.000000000000000000 ) ) ;
#251 = CIRCLE ( 'NONE', #54, 3.549999999999997602 ) ;
#252 = ORIENTED_EDGE ( 'NONE', *, *, #263, .T. ) ;
#253 = CARTESIAN_POINT ( 'NONE',  ( 2.939152317953647342E-14, 17.69999999999999929, 59.99999999999999289 ) ) ;
#254 = ORIENTED_EDGE ( 'NONE', *, *, #37, .T. ) ;
#255 = CARTESIAN_POINT ( 'NONE',  ( 2.204364238465235822E-14, 17.69999999999999929, -60.00000000000000711 ) ) ;
#256 = EDGE_LOOP ( 'NONE', ( #76, #439, #178, #254 ) ) ;
#257 = EDGE_CURVE ( 'NONE', #385, #91, #109, .T. ) ;
#258 = LINE ( 'NONE', #444, #138 ) ;
#259 = DIRECTION ( 'NONE',  ( 0.000000000000000000, 0.000000000000000000, -1.000000000000000000 ) ) ;
#260 = VECTOR ( 'NONE', #39, 1000.000000000000000 ) ;
#261 = DIRECTION ( 'NONE',  ( 0.000000000000000000, 1.000000000000000000, 0.000000000000000000 ) ) ;
#262 = DIRECTION ( 'NONE',  ( 0.000000000000000000, 0.000000000000000000, 1.000000000000000000 ) ) ;
#263 = EDGE_CURVE ( 'NONE', #418, #137, #105, .T. ) ;
#264 = FACE_BOUND ( 'NONE', #443, .T. ) ;
#265 = AXIS2_PLACEMENT_3D ( 'NONE', #295, #424, #259 ) ;
#266 = FACE_OUTER_BOUND ( 'NONE', #166, .T. ) ;
#267 = LINE ( 'NONE', #372, #130 ) ;
#268 = DIRECTION ( 'NONE',  ( -0.000000000000000000, -1.000000000000000000, -0.000000000000000000 ) ) ;
#269 = EDGE_CURVE ( 'NONE', #357, #146, #71, .T. ) ;
#270 = ORIENTED_EDGE ( 'NONE', *, *, #189, .T. ) ;
#271 = AXIS2_PLACEMENT_3D ( 'NONE', #232, #371, #453 ) ;
#272 = ORIENTED_EDGE ( 'NONE', *, *, #425, .T. ) ;
#273 = ORIENTED_EDGE ( 'NONE', *, *, #446, .F. ) ;
#274 = EDGE_CURVE ( 'NONE', #200, #437, #80, .T. ) ;
#275 = APPLICATION_PROTOCOL_DEFINITION ( 'draft international standard', 'automotive_design', 1998, #328 ) ;
#276 = DIRECTION ( 'NONE',  ( -0.000000000000000000, -1.000000000000000000, -0.000000000000000000 ) ) ;
#277 = EDGE_LOOP ( 'NONE', ( #164, #270, #132, #248 ) ) ;
#278 = VECTOR ( 'NONE', #65, 1000.000000000000000 ) ;
#279 = CIRCLE ( 'NONE', #117, 3.549999999999997602 ) ;
#280 = DIRECTION ( 'NONE',  ( -0.000000000000000000, -1.000000000000000000, -0.000000000000000000 ) ) ;
#281 = VERTEX_POINT ( 'NONE', #389 ) ;
#282 = DIRECTION ( 'NONE',  ( -0.000000000000000000, 1.000000000000000000, -0.000000000000000000 ) ) ;
#283 = ORIENTED_EDGE ( 'NONE', *, *, #366, .T. ) ;
#284 = CARTESIAN_POINT ( 'NONE',  ( 2.939152317953647342E-14, 17.69999999999999929, 59.99999999999999289 ) ) ;
#285 = PRODUCT_DEFINITION ( 'UNKNOWN', '', #222, #145 ) ;
#286 = FACE_BOUND ( 'NONE', #341, .T. ) ;
#287 = AXIS2_PLACEMENT_3D ( 'NONE', #5, #208, #348 ) ;
#288 = CARTESIAN_POINT ( 'NONE',  ( 2.939152317953647342E-14, 17.69999999999999929, 57.94999999999998863 ) ) ;
#289 = AXIS2_PLACEMENT_3D ( 'NONE', #30, #131, #205 ) ;
#290 = ORIENTED_EDGE ( 'NONE', *, *, #299, .T. ) ;
#291 = DIRECTION ( 'NONE',  ( 0.000000000000000000, 1.000000000000000000, 0.000000000000000000 ) ) ;
#292 = EDGE_LOOP ( 'NONE', ( #55, #406 ) ) ;
#293 = ADVANCED_FACE ( 'NONE', ( #73 ), #353, .T. ) ;
#294 = DIRECTION ( 'NONE',  ( -0.000000000000000000, -1.000000000000000000, -0.000000000000000000 ) ) ;
#295 = CARTESIAN_POINT ( 'NONE',  ( 2.204364238465235822E-14, 17.69999999999999929, -60.00000000000000711 ) ) ;
#296 = SURFACE_SIDE_STYLE ('',( #8 ) ) ;
#297 = CARTESIAN_POINT ( 'NONE',  ( 2.939152317953647342E-14, 0.000000000000000000, 57.94999999999998863 ) ) ;
#298 = CIRCLE ( 'NONE', #311, 2.050000000000003375 ) ;
#299 = EDGE_CURVE ( 'NONE', #113, #410, #391, .T. ) ;
#300 = DIRECTION ( 'NONE',  ( 0.000000000000000000, 0.000000000000000000, 1.000000000000000000 ) ) ;
#301 = DIRECTION ( 'NONE',  ( -1.000000000000000000, 0.000000000000000000, 2.023844055306274779E-16 ) ) ;
#302 = CYLINDRICAL_SURFACE ( 'NONE', #175, 2.050000000000003375 ) ;
#303 = ORIENTED_EDGE ( 'NONE', *, *, #201, .T. ) ;
#304 = DIRECTION ( 'NONE',  ( 0.000000000000000000, 1.000000000000000000, 0.000000000000000000 ) ) ;
#305 = EDGE_CURVE ( 'NONE', #314, #62, #359, .T. ) ;
#306 = ORIENTED_EDGE ( 'NONE', *, *, #433, .T. ) ;
#307 = CIRCLE ( 'NONE', #287, 11.99999999999998934 ) ;
#308 = EDGE_LOOP ( 'NONE', ( #2, #252, #16, #169 ) ) ;
#309 = FACE_OUTER_BOUND ( 'NONE', #452, .T. ) ;
#310 = EDGE_LOOP ( 'NONE', ( #216, #97, #324, #24 ) ) ;
#311 = AXIS2_PLACEMENT_3D ( 'NONE', #118, #261, #432 ) ;
#312 = AXIS2_PLACEMENT_3D ( 'NONE', #364, #340, #47 ) ;
#313 = DIRECTION ( 'NONE',  ( -0.000000000000000000, -1.000000000000000000, -0.000000000000000000 ) ) ;
#314 = VERTEX_POINT ( 'NONE', #326 ) ;
#315 = EDGE_CURVE ( 'NONE', #357, #183, #219, .T. ) ;
#316 = DIRECTION ( 'NONE',  ( 0.000000000000000000, 1.000000000000000000, 0.000000000000000000 ) ) ;
#317 = EDGE_LOOP ( 'NONE', ( #104, #67 ) ) ;
#318 = DIRECTION ( 'NONE',  ( 0.000000000000000000, 0.000000000000000000, -1.000000000000000000 ) ) ;
#319 = UNCERTAINTY_MEASURE_WITH_UNIT (LENGTH_MEASURE( 1.000000000000000082E-05 ), #408, 'distance_accuracy_value', 'NONE');
#320 = LINE ( 'NONE', #181, #260 ) ;
#321 = AXIS2_PLACEMENT_3D ( 'NONE', #177, #140, #356 ) ;
#322 = PLANE ( 'NONE',  #61 ) ;
#323 = CIRCLE ( 'NONE', #403, 11.99999999999998934 ) ;
#324 = ORIENTED_EDGE ( 'NONE', *, *, #240, .F. ) ;
#325 = EDGE_CURVE ( 'NONE', #183, #74, #98, .T. ) ;
#326 = CARTESIAN_POINT ( 'NONE',  ( 2.964257577336167921E-14, 0.000000000000000000, 62.04999999999999716 ) ) ;
#327 = FACE_OUTER_BOUND ( 'NONE', #392, .T. ) ;
#328 = APPLICATION_CONTEXT ( 'automotive_design' ) ;
#329 = FILL_AREA_STYLE ('',( #187 ) ) ;
#330 = FACE_OUTER_BOUND ( 'NONE', #21, .T. ) ;
#331 = CARTESIAN_POINT ( 'NONE',  ( 2.939152317953647342E-14, 17.69999999999999929, 57.94999999999998863 ) ) ;
#332 = CARTESIAN_POINT ( 'NONE',  ( 2.204364238465235822E-14, 11.70000000000000107, -56.45000000000000995 ) ) ;
#333 = AXIS2_PLACEMENT_3D ( 'NONE', #150, #291, #423 ) ;
#334 = DIRECTION ( 'NONE',  ( 0.000000000000000000, 1.000000000000000000, 0.000000000000000000 ) ) ;
#335 = CARTESIAN_POINT ( 'NONE',  ( 2.939152317953647342E-14, 17.69999999999999929, 59.99999999999999289 ) ) ;
#336 = ORIENTED_EDGE ( 'NONE', *, *, #189, .F. ) ;
#337 = AXIS2_PLACEMENT_3D ( 'NONE', #209, #313, #28 ) ;
#338 = CARTESIAN_POINT ( 'NONE',  ( 2.939152317953647342E-14, 17.69999999999999929, 59.99999999999999289 ) ) ;
#339 = EDGE_LOOP ( 'NONE', ( #238, #420 ) ) ;
#340 = DIRECTION ( 'NONE',  ( -0.000000000000000000, -1.000000000000000000, -0.000000000000000000 ) ) ;
#341 = EDGE_LOOP ( 'NONE', ( #234, #390 ) ) ;
#342 = ORIENTED_EDGE ( 'NONE', *, *, #315, .F. ) ;
#343 = PRODUCT_CONTEXT ( 'NONE', #358, 'mechanical' ) ;
#344 = PRESENTATION_LAYER_ASSIGNMENT (  '', '', ( #34 ) ) ;
#345 = ORIENTED_EDGE ( 'NONE', *, *, #214, .F. ) ;
#346 = CARTESIAN_POINT ( 'NONE',  ( 2.204364238465235822E-14, 0.000000000000000000, -60.00000000000000711 ) ) ;
#347 = UNCERTAINTY_MEASURE_WITH_UNIT (LENGTH_MEASURE( 1.000000000000000082E-05 ), #430, 'distance_accuracy_value', 'NONE');
#348 = DIRECTION ( 'NONE',  ( 0.000000000000000000, 0.000000000000000000, 1.000000000000000000 ) ) ;
#349 = DIRECTION ( 'NONE',  ( -0.000000000000000000, -1.000000000000000000, -0.000000000000000000 ) ) ;
#350 = ORIENTED_EDGE ( 'NONE', *, *, #404, .T. ) ;
#351 = CARTESIAN_POINT ( 'NONE',  ( 2.204364238465235822E-14, 11.70000000000000107, -60.00000000000000711 ) ) ;
#352 = ORIENTED_EDGE ( 'NONE', *, *, #366, .F. ) ;
#353 = CYLINDRICAL_SURFACE ( 'NONE', #96, 12.00000000000000355 ) ;
#354 = ORIENTED_EDGE ( 'NONE', *, *, #173, .T. ) ;
#355 = EDGE_CURVE ( 'NONE', #437, #200, #50, .T. ) ;
#356 = DIRECTION ( 'NONE',  ( 0.000000000000000000, 0.000000000000000000, -1.000000000000000000 ) ) ;
#357 = VERTEX_POINT ( 'NONE', #125 ) ;
#358 = APPLICATION_CONTEXT ( 'automotive_design' ) ;
#359 = CIRCLE ( 'NONE', #163, 2.050000000000003375 ) ;
#360 = CARTESIAN_POINT ( 'NONE',  ( -11.99999999999996980, 17.69999999999999929, 59.99999999999999289 ) ) ;
#361 = CARTESIAN_POINT ( 'NONE',  ( 2.204364238465235822E-14, 11.70000000000000107, -62.05000000000001137 ) ) ;
#362 = DIRECTION ( 'NONE',  ( 0.000000000000000000, 0.000000000000000000, 1.000000000000000000 ) ) ;
#363 = DIRECTION ( 'NONE',  ( -0.000000000000000000, -1.000000000000000000, -0.000000000000000000 ) ) ;
#364 = CARTESIAN_POINT ( 'NONE',  ( 2.204364238465235822E-14, 17.69999999999999929, -60.00000000000000711 ) ) ;
#365 = DIRECTION ( 'NONE',  ( 0.000000000000000000, -0.000000000000000000, 1.000000000000000000 ) ) ;
#366 = EDGE_CURVE ( 'NONE', #449, #445, #267, .T. ) ;
#367 = AXIS2_PLACEMENT_3D ( 'NONE', #284, #417, #250 ) ;
#368 = DIRECTION ( 'NONE',  ( 0.000000000000000000, 1.000000000000000000, 0.000000000000000000 ) ) ;
#369 = FACE_OUTER_BOUND ( 'NONE', #198, .T. ) ;
#370 = EDGE_CURVE ( 'NONE', #93, #383, #45, .T. ) ;
#371 = DIRECTION ( 'NONE',  ( -0.000000000000000000, -1.000000000000000000, -0.000000000000000000 ) ) ;
#372 = CARTESIAN_POINT ( 'NONE',  ( -11.99999999999998224, 17.69999999999999929, -59.99999999999999289 ) ) ;
#373 = ORIENTED_EDGE ( 'NONE', *, *, #26, .T. ) ;
#374 = VECTOR ( 'NONE', #43, 1000.000000000000000 ) ;
#375 = CARTESIAN_POINT ( 'NONE',  ( 12.00000000000001599, 0.000000000000000000, -60.00000000000000000 ) ) ;
#376 = ORIENTED_EDGE ( 'NONE', *, *, #274, .T. ) ;
#377 = ADVANCED_FACE ( 'NONE', ( #235 ), #398, .T. ) ;
#378 = ORIENTED_EDGE ( 'NONE', *, *, #409, .T. ) ;
#379 = VERTEX_POINT ( 'NONE', #112 ) ;
#380 = AXIS2_PLACEMENT_3D ( 'NONE', #228, #368, #86 ) ;
#381 = MECHANICAL_DESIGN_GEOMETRIC_PRESENTATION_REPRESENTATION (  '', ( #34 ), #123 ) ;
#382 = FACE_OUTER_BOUND ( 'NONE', #277, .T. ) ;
#383 = VERTEX_POINT ( 'NONE', #375 ) ;
#384 = DIRECTION ( 'NONE',  ( 0.000000000000000000, 0.000000000000000000, 1.000000000000000000 ) ) ;
#385 = VERTEX_POINT ( 'NONE', #396 ) ;
#386 = DIRECTION ( 'NONE',  ( 0.000000000000000000, 0.000000000000000000, 1.000000000000000000 ) ) ;
#387 = ORIENTED_EDGE ( 'NONE', *, *, #19, .F. ) ;
#388 = AXIS2_PLACEMENT_3D ( 'NONE', #154, #421, #11 ) ;
#389 = CARTESIAN_POINT ( 'NONE',  ( -11.99999999999996980, 17.69999999999999929, 59.99999999999999289 ) ) ;
#390 = ORIENTED_EDGE ( 'NONE', *, *, #269, .F. ) ;
#391 = LINE ( 'NONE', #53, #434 ) ;
#392 = EDGE_LOOP ( 'NONE', ( #210, #290, #167, #352 ) ) ;
#393 = DIRECTION ( 'NONE',  ( 0.000000000000000000, 0.000000000000000000, 1.000000000000000000 ) ) ;
#394 = ORIENTED_EDGE ( 'NONE', *, *, #147, .T. ) ;
#395 = CLOSED_SHELL ( 'NONE', ( #179, #207, #157, #120, #225, #103, #88, #293, #77, #377, #194, #162, #111, #49 ) ) ;
#396 = CARTESIAN_POINT ( 'NONE',  ( 12.00000000000003020, 17.69999999999999929, 59.99999999999999289 ) ) ;
#397 = CARTESIAN_POINT ( 'NONE',  ( 12.00000000000003020, 0.000000000000000000, 59.99999999999999289 ) ) ;
#398 = CYLINDRICAL_SURFACE ( 'NONE', #312, 11.99999999999998934 ) ;
#399 = DIRECTION ( 'NONE',  ( 2.023844055306274779E-16, 0.000000000000000000, 1.000000000000000000 ) ) ;
#400 = EDGE_CURVE ( 'NONE', #410, #445, #436, .T. ) ;
#401 = FACE_OUTER_BOUND ( 'NONE', #310, .T. ) ;
#402 = CYLINDRICAL_SURFACE ( 'NONE', #221, 3.549999999999997602 ) ;
#403 = AXIS2_PLACEMENT_3D ( 'NONE', #255, #233, #393 ) ;
#404 = EDGE_CURVE ( 'NONE', #100, #418, #72, .T. ) ;
#405 = SURFACE_STYLE_USAGE ( .BOTH. , #296 ) ;
#406 = ORIENTED_EDGE ( 'NONE', *, *, #325, .T. ) ;
#407 = DIRECTION ( 'NONE',  ( 0.000000000000000000, 1.000000000000000000, 0.000000000000000000 ) ) ;
#408 =( LENGTH_UNIT ( ) NAMED_UNIT ( * ) SI_UNIT ( .MILLI., .METRE. ) );
#409 = EDGE_CURVE ( 'NONE', #379, #91, #242, .T. ) ;
#410 = VERTEX_POINT ( 'NONE', #81 ) ;
#411 = DIRECTION ( 'NONE',  ( 0.000000000000000000, 0.000000000000000000, 1.000000000000000000 ) ) ;
#412 = ORIENTED_EDGE ( 'NONE', *, *, #201, .F. ) ;
#413 = CARTESIAN_POINT ( 'NONE',  ( 2.204364238465235822E-14, 0.000000000000000000, -60.00000000000000711 ) ) ;
#414 = EDGE_LOOP ( 'NONE', ( #127, #18, #36, #303 ) ) ;
#415 = LINE ( 'NONE', #144, #136 ) ;
#416 = EDGE_LOOP ( 'NONE', ( #176, #27, #134, #283 ) ) ;
#417 = DIRECTION ( 'NONE',  ( 0.000000000000000000, 1.000000000000000000, 0.000000000000000000 ) ) ;
#418 = VERTEX_POINT ( 'NONE', #114 ) ;
#419 = DIRECTION ( 'NONE',  ( 0.000000000000000000, 1.000000000000000000, 0.000000000000000000 ) ) ;
#420 = ORIENTED_EDGE ( 'NONE', *, *, #70, .F. ) ;
#421 = DIRECTION ( 'NONE',  ( 0.000000000000000000, 1.000000000000000000, 0.000000000000000000 ) ) ;
#422 = ORIENTED_EDGE ( 'NONE', *, *, #257, .F. ) ;
#423 = DIRECTION ( 'NONE',  ( 0.000000000000000000, 0.000000000000000000, 1.000000000000000000 ) ) ;
#424 = DIRECTION ( 'NONE',  ( -0.000000000000000000, -1.000000000000000000, -0.000000000000000000 ) ) ;
#425 = EDGE_CURVE ( 'NONE', #93, #113, #323, .T. ) ;
#426 = AXIS2_PLACEMENT_3D ( 'NONE', #115, #301, #399 ) ;
#427 = PRESENTATION_STYLE_ASSIGNMENT (( #405 ) ) ;
#428 = AXIS2_PLACEMENT_3D ( 'NONE', #338, #304, #17 ) ;
#429 = FACE_OUTER_BOUND ( 'NONE', #454, .T. ) ;
#430 =( LENGTH_UNIT ( ) NAMED_UNIT ( * ) SI_UNIT ( .MILLI., .METRE. ) );
#431 = CARTESIAN_POINT ( 'NONE',  ( 2.204364238465235822E-14, 17.69999999999999929, -72.00000000000000000 ) ) ;
#432 = DIRECTION ( 'NONE',  ( 0.000000000000000000, 0.000000000000000000, 1.000000000000000000 ) ) ;
#433 = EDGE_CURVE ( 'NONE', #281, #379, #78, .T. ) ;
#434 = VECTOR ( 'NONE', #223, 1000.000000000000000 ) ;
#435 = CARTESIAN_POINT ( 'NONE',  ( 2.247839199834966989E-14, 17.69999999999999929, -63.55000000000001137 ) ) ;
#436 = CIRCLE ( 'NONE', #197, 11.99999999999998934 ) ;
#437 = VERTEX_POINT ( 'NONE', #331 ) ;
#438 = CARTESIAN_POINT ( 'NONE',  ( 2.939152317953647342E-14, 0.000000000000000000, 59.99999999999999289 ) ) ;
#439 = ORIENTED_EDGE ( 'NONE', *, *, #404, .F. ) ;
#440 = EDGE_CURVE ( 'NONE', #418, #100, #279, .T. ) ;
#441 = AXIS2_PLACEMENT_3D ( 'NONE', #346, #180, #384 ) ;
#442 = MANIFOLD_SOLID_BREP ( 'Cut-Extrude1', #395 ) ;
#443 = EDGE_LOOP ( 'NONE', ( #170, #69 ) ) ;
#444 = CARTESIAN_POINT ( 'NONE',  ( 12.00000000000003020, 17.69999999999999929, 59.99999999999999289 ) ) ;
#445 = VERTEX_POINT ( 'NONE', #59 ) ;
#446 = EDGE_CURVE ( 'NONE', #385, #93, #258, .T. ) ;
#447 =( NAMED_UNIT ( * ) SI_UNIT ( $, .STERADIAN. ) SOLID_ANGLE_UNIT ( ) );
#448 = LINE ( 'NONE', #135, #33 ) ;
#449 = VERTEX_POINT ( 'NONE', #239 ) ;
#450 = VECTOR ( 'NONE', #6, 1000.000000000000000 ) ;
#451 = CYLINDRICAL_SURFACE ( 'NONE', #321, 2.050000000000003375 ) ;
#452 = EDGE_LOOP ( 'NONE', ( #342, #172, #354, #110 ) ) ;
#453 = DIRECTION ( 'NONE',  ( 0.000000000000000000, 0.000000000000000000, -1.000000000000000000 ) ) ;
#454 = EDGE_LOOP ( 'NONE', ( #350, #58 ) ) ;
ENDSEC;
END-ISO-10303-21;
