ISO-10303-21;
HEADER;
FILE_DESCRIPTION (( 'STEP AP214' ),
    '1' );
FILE_NAME ('Cover.STEP',
    '2026-07-28T10:13:02',
    ( '' ),
    ( '' ),
    'SwSTEP 2.0',
    'SolidWorks 2024',
    '' );
FILE_SCHEMA (( 'AUTOMOTIVE_DESIGN' ));
ENDSEC;

DATA;
#1 = ADVANCED_FACE ( 'NONE', ( #634 ), #444, .T. ) ;
#2 = CARTESIAN_POINT ( 'NONE',  ( 66.53938949727582042, 10.76823338735818503, 77.70000000000000284 ) ) ;
#3 = ORIENTED_EDGE ( 'NONE', *, *, #269, .F. ) ;
#4 = DIRECTION ( 'NONE',  ( -1.000000000000000000, 0.000000000000000000, 0.000000000000000000 ) ) ;
#5 =( LENGTH_UNIT ( ) NAMED_UNIT ( * ) SI_UNIT ( .MILLI., .METRE. ) );
#6 = EDGE_CURVE ( 'NONE', #478, #333, #99, .T. ) ;
#7 = VERTEX_POINT ( 'NONE', #1178 ) ;
#8 = EDGE_CURVE ( 'NONE', #393, #591, #85, .T. ) ;
#9 = DIRECTION ( 'NONE',  ( 0.000000000000000000, 1.000000000000000000, 0.000000000000000000 ) ) ;
#10 = AXIS2_PLACEMENT_3D ( 'NONE', #1014, #175, #912 ) ;
#11 = CARTESIAN_POINT ( 'NONE',  ( 0.000000000000000000, 0.000000000000000000, 86.20000000000001705 ) ) ;
#12 = DIRECTION ( 'NONE',  ( 0.000000000000000000, 0.000000000000000000, 1.000000000000000000 ) ) ;
#13 = EDGE_CURVE ( 'NONE', #212, #716, #760, .T. ) ;
#14 = CYLINDRICAL_SURFACE ( 'NONE', #880, 3.000000000000001332 ) ;
#15 = AXIS2_PLACEMENT_3D ( 'NONE', #317, #874, #406 ) ;
#16 = CARTESIAN_POINT ( 'NONE',  ( -0.3889789303078983185, 19.99621702702229697, 79.20000000000000284 ) ) ;
#17 = DIRECTION ( 'NONE',  ( 0.000000000000000000, 0.000000000000000000, 1.000000000000000000 ) ) ;
#18 = ORIENTED_EDGE ( 'NONE', *, *, #13, .T. ) ;
#19 = DIRECTION ( 'NONE',  ( 0.000000000000000000, 0.000000000000000000, -1.000000000000000000 ) ) ;
#20 = CYLINDRICAL_SURFACE ( 'NONE', #108, 3.000000000000002220 ) ;
#21 = LINE ( 'NONE', #563, #958 ) ;
#22 = ORIENTED_EDGE ( 'NONE', *, *, #181, .T. ) ;
#23 = DIRECTION ( 'NONE',  ( 0.000000000000000000, 0.000000000000000000, -1.000000000000000000 ) ) ;
#24 = VERTEX_POINT ( 'NONE', #87 ) ;
#25 = EDGE_CURVE ( 'NONE', #823, #524, #1039, .T. ) ;
#26 = CYLINDRICAL_SURFACE ( 'NONE', #86, 1.999999999999988010 ) ;
#27 = AXIS2_PLACEMENT_3D ( 'NONE', #1118, #387, #756 ) ;
#28 = ORIENTED_EDGE ( 'NONE', *, *, #285, .F. ) ;
#29 = DIRECTION ( 'NONE',  ( 0.000000000000000000, 0.000000000000000000, -1.000000000000000000 ) ) ;
#30 = CIRCLE ( 'NONE', #200, 3.000000000000002220 ) ;
#31 = EDGE_CURVE ( 'NONE', #326, #524, #917, .T. ) ;
#32 = CIRCLE ( 'NONE', #861, 20.00000000000000355 ) ;
#33 = CARTESIAN_POINT ( 'NONE',  ( 77.12500000000000000, 21.50000000000000000, 89.20000000000000284 ) ) ;
#34 = ORIENTED_EDGE ( 'NONE', *, *, #252, .T. ) ;
#35 = DIRECTION ( 'NONE',  ( 0.000000000000000000, 0.000000000000000000, 1.000000000000000000 ) ) ;
#36 = ORIENTED_EDGE ( 'NONE', *, *, #1047, .T. ) ;
#37 = DIRECTION ( 'NONE',  ( 1.000000000000000000, 0.000000000000000000, 0.000000000000000000 ) ) ;
#38 = ORIENTED_EDGE ( 'NONE', *, *, #702, .F. ) ;
#39 = LINE ( 'NONE', #136, #676 ) ;
#40 = VERTEX_POINT ( 'NONE', #173 ) ;
#41 = DIRECTION ( 'NONE',  ( 0.000000000000000000, 1.000000000000000000, 0.000000000000000000 ) ) ;
#42 = AXIS2_PLACEMENT_3D ( 'NONE', #148, #71, #791 ) ;
#43 = DIRECTION ( 'NONE',  ( 0.000000000000000000, 0.000000000000000000, 1.000000000000000000 ) ) ;
#44 = ORIENTED_EDGE ( 'NONE', *, *, #983, .F. ) ;
#45 = CARTESIAN_POINT ( 'NONE',  ( 76.70684764991895577, 21.49593330404894687, 79.20000000000000284 ) ) ;
#46 = EDGE_CURVE ( 'NONE', #1008, #398, #122, .T. ) ;
#47 = ORIENTED_EDGE ( 'NONE', *, *, #633, .T. ) ;
#48 = CYLINDRICAL_SURFACE ( 'NONE', #980, 3.000000000000001332 ) ;
#49 = AXIS2_PLACEMENT_3D ( 'NONE', #884, #339, #37 ) ;
#50 = LINE ( 'NONE', #1079, #542 ) ;
#51 = AXIS2_PLACEMENT_3D ( 'NONE', #554, #1034, #1029 ) ;
#52 = ORIENTED_EDGE ( 'NONE', *, *, #402, .T. ) ;
#53 = DIRECTION ( 'NONE',  ( -0.000000000000000000, -0.000000000000000000, 1.000000000000000000 ) ) ;
#54 = ORIENTED_EDGE ( 'NONE', *, *, #1121, .F. ) ;
#55 = EDGE_CURVE ( 'NONE', #1160, #690, #721, .T. ) ;
#56 = DIRECTION ( 'NONE',  ( 0.000000000000000000, 0.000000000000000000, -1.000000000000000000 ) ) ;
#57 = LINE ( 'NONE', #1084, #1168 ) ;
#58 = ORIENTED_EDGE ( 'NONE', *, *, #332, .F. ) ;
#59 = DIRECTION ( 'NONE',  ( 0.000000000000000000, 0.000000000000000000, 1.000000000000000000 ) ) ;
#60 = VERTEX_POINT ( 'NONE', #909 ) ;
#61 = CARTESIAN_POINT ( 'NONE',  ( 77.12500000000000000, -21.50000000000000000, 79.20000000000000284 ) ) ;
#62 = EDGE_CURVE ( 'NONE', #716, #1042, #80, .T. ) ;
#63 = UNCERTAINTY_MEASURE_WITH_UNIT (LENGTH_MEASURE( 1.000000000000000082E-05 ), #5, 'distance_accuracy_value', 'NONE');
#64 = DIRECTION ( 'NONE',  ( 0.000000000000000000, 1.000000000000000000, 0.000000000000000000 ) ) ;
#65 = ORIENTED_EDGE ( 'NONE', *, *, #119, .T. ) ;
#66 = CARTESIAN_POINT ( 'NONE',  ( 54.73068258469125169, -13.06692570968390044, 89.20000000000000284 ) ) ;
#67 = EDGE_LOOP ( 'NONE', ( #258, #1104, #1154, #224 ) ) ;
#68 = LINE ( 'NONE', #805, #984 ) ;
#69 = VECTOR ( 'NONE', #352, 1000.000000000000000 ) ;
#70 = ORIENTED_EDGE ( 'NONE', *, *, #402, .F. ) ;
#71 = DIRECTION ( 'NONE',  ( 0.000000000000000000, 0.000000000000000000, 1.000000000000000000 ) ) ;
#72 = ORIENTED_EDGE ( 'NONE', *, *, #665, .F. ) ;
#73 = DIRECTION ( 'NONE',  ( 1.000000000000000000, 0.000000000000000000, 0.000000000000000000 ) ) ;
#74 = DIRECTION ( 'NONE',  ( 0.000000000000000000, 0.000000000000000000, 1.000000000000000000 ) ) ;
#75 = EDGE_LOOP ( 'NONE', ( #18, #474 ) ) ;
#76 = EDGE_CURVE ( 'NONE', #1160, #938, #679, .T. ) ;
#77 = ORIENTED_EDGE ( 'NONE', *, *, #505, .F. ) ;
#78 = DIRECTION ( 'NONE',  ( 0.000000000000000000, 0.000000000000000000, 1.000000000000000000 ) ) ;
#79 = SURFACE_STYLE_USAGE ( .BOTH. , #737 ) ;
#80 = LINE ( 'NONE', #256, #163 ) ;
#81 = VECTOR ( 'NONE', #389, 1000.000000000000000 ) ;
#82 = ORIENTED_EDGE ( 'NONE', *, *, #1047, .F. ) ;
#83 = DIRECTION ( 'NONE',  ( 1.000000000000000000, 0.000000000000000000, 0.000000000000000000 ) ) ;
#84 = ADVANCED_FACE ( 'NONE', ( #1191 ), #551, .F. ) ;
#85 = CIRCLE ( 'NONE', #1188, 3.000000000000002220 ) ;
#86 = AXIS2_PLACEMENT_3D ( 'NONE', #115, #105, #771 ) ;
#87 = CARTESIAN_POINT ( 'NONE',  ( 76.70684764991895577, 21.49593330404894687, 79.20000000000000284 ) ) ;
#88 =( NAMED_UNIT ( * ) SI_UNIT ( $, .STERADIAN. ) SOLID_ANGLE_UNIT ( ) );
#89 = EDGE_LOOP ( 'NONE', ( #759, #827, #776, #1024 ) ) ;
#90 = DIRECTION ( 'NONE',  ( -0.8446294373469527272, -0.5353513926076686191, 0.000000000000000000 ) ) ;
#91 = VECTOR ( 'NONE', #107, 1000.000000000000000 ) ;
#92 = DIRECTION ( 'NONE',  ( 0.000000000000000000, 0.000000000000000000, 1.000000000000000000 ) ) ;
#93 = DIRECTION ( 'NONE',  ( -1.000000000000000000, 0.000000000000000000, 0.000000000000000000 ) ) ;
#94 = APPLICATION_PROTOCOL_DEFINITION ( 'draft international standard', 'automotive_design', 1998, #164 ) ;
#95 = ORIENTED_EDGE ( 'NONE', *, *, #202, .F. ) ;
#96 = DIRECTION ( 'NONE',  ( 0.000000000000000000, -1.000000000000000000, 0.000000000000000000 ) ) ;
#97 = CARTESIAN_POINT ( 'NONE',  ( 57.29282491146929601, -11.72006937418067274, 89.20000000000000284 ) ) ;
#98 = EDGE_CURVE ( 'NONE', #301, #518, #1038, .T. ) ;
#99 = LINE ( 'NONE', #439, #875 ) ;
#100 = ORIENTED_EDGE ( 'NONE', *, *, #25, .F. ) ;
#101 = DIRECTION ( 'NONE',  ( -0.000000000000000000, -0.000000000000000000, 1.000000000000000000 ) ) ;
#102 = VECTOR ( 'NONE', #592, 1000.000000000000114 ) ;
#103 = CARTESIAN_POINT ( 'NONE',  ( 20.98696644759190377, -9.409954268095530594, 89.20000000000000284 ) ) ;
#104 = AXIS2_PLACEMENT_3D ( 'NONE', #195, #381, #860 ) ;
#105 = DIRECTION ( 'NONE',  ( -0.000000000000000000, -0.000000000000000000, 1.000000000000000000 ) ) ;
#106 = ORIENTED_EDGE ( 'NONE', *, *, #202, .T. ) ;
#107 = DIRECTION ( 'NONE',  ( 0.000000000000000000, 0.000000000000000000, -1.000000000000000000 ) ) ;
#108 = AXIS2_PLACEMENT_3D ( 'NONE', #754, #1122, #492 ) ;
#109 = ORIENTED_EDGE ( 'NONE', *, *, #865, .T. ) ;
#110 = LINE ( 'NONE', #507, #167 ) ;
#111 = CARTESIAN_POINT ( 'NONE',  ( 20.98696644759190377, 9.409954268095500396, 89.20000000000000284 ) ) ;
#112 = ORIENTED_EDGE ( 'NONE', *, *, #650, .F. ) ;
#113 = DIRECTION ( 'NONE',  ( 0.000000000000000000, 0.000000000000000000, 1.000000000000000000 ) ) ;
#114 = EDGE_CURVE ( 'NONE', #40, #393, #954, .T. ) ;
#115 = CARTESIAN_POINT ( 'NONE',  ( 87.71061050272419379, -10.76823338735817970, 77.70000000000000284 ) ) ;
#116 = ORIENTED_EDGE ( 'NONE', *, *, #285, .T. ) ;
#117 = CARTESIAN_POINT ( 'NONE',  ( 85.89323338735817970, 10.58561050272418314, 89.20000000000000284 ) ) ;
#118 = EDGE_LOOP ( 'NONE', ( #58, #653, #608, #54 ) ) ;
#119 = EDGE_CURVE ( 'NONE', #533, #1175, #916, .T. ) ;
#120 = AXIS2_PLACEMENT_3D ( 'NONE', #399, #768, #846 ) ;
#121 = LINE ( 'NONE', #1140, #391 ) ;
#122 = CIRCLE ( 'NONE', #1112, 2.000000000000001776 ) ;
#123 = ORIENTED_EDGE ( 'NONE', *, *, #1171, .T. ) ;
#124 = FACE_OUTER_BOUND ( 'NONE', #177, .T. ) ;
#125 = AXIS2_PLACEMENT_3D ( 'NONE', #664, #12, #669 ) ;
#126 = EDGE_CURVE ( 'NONE', #565, #949, #541, .T. ) ;
#127 = CIRCLE ( 'NONE', #536, 10.09999999999999964 ) ;
#128 = CARTESIAN_POINT ( 'NONE',  ( 18.24953604138439900, -8.182568928778708894, 89.20000000000000284 ) ) ;
#129 = ORIENTED_EDGE ( 'NONE', *, *, #549, .T. ) ;
#130 = CARTESIAN_POINT ( 'NONE',  ( 20.98696644759190377, -9.409954268095530594, 79.20000000000000284 ) ) ;
#131 = EDGE_LOOP ( 'NONE', ( #735, #816, #711, #1166 ) ) ;
#132 = FACE_BOUND ( 'NONE', #995, .T. ) ;
#133 = CARTESIAN_POINT ( 'NONE',  ( 0.000000000000000000, 0.000000000000000000, 86.20000000000001705 ) ) ;
#134 = EDGE_CURVE ( 'NONE', #524, #823, #858, .T. ) ;
#135 = ORIENTED_EDGE ( 'NONE', *, *, #532, .T. ) ;
#136 = CARTESIAN_POINT ( 'NONE',  ( -1.714505518806294638E-15, -14.00000000000000000, 79.20000000000000284 ) ) ;
#137 = ORIENTED_EDGE ( 'NONE', *, *, #763, .F. ) ;
#138 = CARTESIAN_POINT ( 'NONE',  ( 77.12500000000000000, 0.000000000000000000, 89.20000000000000284 ) ) ;
#139 = DIRECTION ( 'NONE',  ( 1.000000000000000000, 0.000000000000000000, 0.000000000000000000 ) ) ;
#140 = ORIENTED_EDGE ( 'NONE', *, *, #397, .T. ) ;
#141 = CARTESIAN_POINT ( 'NONE',  ( 0.000000000000000000, 0.000000000000000000, 86.20000000000001705 ) ) ;
#142 = VECTOR ( 'NONE', #714, 1000.000000000000000 ) ;
#143 = ORIENTED_EDGE ( 'NONE', *, *, #1011, .F. ) ;
#144 = FACE_OUTER_BOUND ( 'NONE', #411, .T. ) ;
#145 = CIRCLE ( 'NONE', #260, 1.999999999999988010 ) ;
#146 = CARTESIAN_POINT ( 'NONE',  ( 0.000000000000000000, 0.000000000000000000, 79.20000000000000284 ) ) ;
#147 = EDGE_LOOP ( 'NONE', ( #802, #828, #605, #832 ) ) ;
#148 = CARTESIAN_POINT ( 'NONE',  ( 77.12500000000000000, 0.000000000000000000, 89.20000000000000284 ) ) ;
#149 = ORIENTED_EDGE ( 'NONE', *, *, #810, .F. ) ;
#150 = DIRECTION ( 'NONE',  ( 1.000000000000000000, 0.000000000000000000, 0.000000000000000000 ) ) ;
#151 = EDGE_CURVE ( 'NONE', #1048, #518, #643, .T. ) ;
#152 = CARTESIAN_POINT ( 'NONE',  ( 0.000000000000000000, 0.000000000000000000, 79.20000000000000284 ) ) ;
#153 = ORIENTED_EDGE ( 'NONE', *, *, #818, .F. ) ;
#154 = LINE ( 'NONE', #609, #312 ) ;
#155 = EDGE_LOOP ( 'NONE', ( #709, #471, #985, #245 ) ) ;
#156 = DIRECTION ( 'NONE',  ( 0.000000000000000000, 0.000000000000000000, 1.000000000000000000 ) ) ;
#157 = EDGE_CURVE ( 'NONE', #355, #393, #21, .T. ) ;
#158 = CARTESIAN_POINT ( 'NONE',  ( 77.12500000000000000, 0.000000000000000000, 79.20000000000000284 ) ) ;
#159 = ORIENTED_EDGE ( 'NONE', *, *, #670, .T. ) ;
#160 = DIRECTION ( 'NONE',  ( 0.000000000000000000, 0.000000000000000000, 1.000000000000000000 ) ) ;
#161 = VERTEX_POINT ( 'NONE', #765 ) ;
#162 = LINE ( 'NONE', #895, #942 ) ;
#163 = VECTOR ( 'NONE', #457, 1000.000000000000000 ) ;
#164 = APPLICATION_CONTEXT ( 'automotive_design' ) ;
#165 = PRESENTATION_STYLE_ASSIGNMENT (( #79 ) ) ;
#166 = EDGE_CURVE ( 'NONE', #60, #210, #599, .T. ) ;
#167 = VECTOR ( 'NONE', #418, 1000.000000000000000 ) ;
#168 = DIRECTION ( 'NONE',  ( -0.000000000000000000, -0.000000000000000000, 1.000000000000000000 ) ) ;
#169 = EDGE_LOOP ( 'NONE', ( #952, #528 ) ) ;
#170 = CARTESIAN_POINT ( 'NONE',  ( 57.52404622943284807, 8.834738891675801398, 89.20000000000000284 ) ) ;
#171 = CARTESIAN_POINT ( 'NONE',  ( 0.000000000000000000, 14.00000000000000000, 79.20000000000000284 ) ) ;
#172 = EDGE_CURVE ( 'NONE', #697, #891, #761, .T. ) ;
#173 = CARTESIAN_POINT ( 'NONE',  ( 20.92861960804579624, -12.40938682214885880, 89.20000000000000284 ) ) ;
#174 = ORIENTED_EDGE ( 'NONE', *, *, #476, .T. ) ;
#175 = DIRECTION ( 'NONE',  ( 0.000000000000000000, 0.000000000000000000, 1.000000000000000000 ) ) ;
#176 = CARTESIAN_POINT ( 'NONE',  ( 77.12500000000000000, 10.09999999999999964, 79.20000000000000284 ) ) ;
#177 = EDGE_LOOP ( 'NONE', ( #911, #553, #52, #486 ) ) ;
#178 = AXIS2_PLACEMENT_3D ( 'NONE', #574, #23, #404 ) ;
#179 = EDGE_CURVE ( 'NONE', #690, #7, #1190, .T. ) ;
#180 = CARTESIAN_POINT ( 'NONE',  ( 87.89323338735819391, 10.58561050272418314, 89.20000000000000284 ) ) ;
#181 = EDGE_CURVE ( 'NONE', #769, #342, #781, .T. ) ;
#182 = DIRECTION ( 'NONE',  ( -0.8446294373469517280, 0.5353513926076699514, 0.000000000000000000 ) ) ;
#183 = AXIS2_PLACEMENT_3D ( 'NONE', #501, #227, #589 ) ;
#184 = ORIENTED_EDGE ( 'NONE', *, *, #1108, .F. ) ;
#185 = AXIS2_PLACEMENT_3D ( 'NONE', #555, #297, #935 ) ;
#186 = ORIENTED_EDGE ( 'NONE', *, *, #556, .T. ) ;
#187 = CARTESIAN_POINT ( 'NONE',  ( 77.12500000000000000, 0.000000000000000000, 79.20000000000000284 ) ) ;
#188 = ADVANCED_FACE ( 'NONE', ( #567 ), #26, .F. ) ;
#189 = FACE_BOUND ( 'NONE', #484, .T. ) ;
#190 = VERTEX_POINT ( 'NONE', #936 ) ;
#191 = VERTEX_POINT ( 'NONE', #288 ) ;
#192 = DIRECTION ( 'NONE',  ( 0.000000000000000000, 0.000000000000000000, 1.000000000000000000 ) ) ;
#193 = ADVANCED_FACE ( 'NONE', ( #844 ), #1135, .F. ) ;
#194 = FACE_BOUND ( 'NONE', #203, .T. ) ;
#195 = CARTESIAN_POINT ( 'NONE',  ( 0.000000000000000000, 0.000000000000000000, 89.20000000000000284 ) ) ;
#196 = EDGE_LOOP ( 'NONE', ( #907, #1072 ) ) ;
#197 = CARTESIAN_POINT ( 'NONE',  ( 66.53938949727582042, 10.76823338735818503, 77.70000000000000284 ) ) ;
#198 = LINE ( 'NONE', #16, #1098 ) ;
#199 = CLOSED_SHELL ( 'NONE', ( #753, #973, #188, #787, #575, #206, #937, #448, #852, #959, #244, #726, #514, #298, #944, #910, #686, #1030, #1053, #351, #1037, #897, #1000, #628, #644, #1017, #1, #991, #495, #993, #694, #311, #193, #84 ) ) ;
#200 = AXIS2_PLACEMENT_3D ( 'NONE', #700, #890, #971 ) ;
#201 = CARTESIAN_POINT ( 'NONE',  ( 87.71061050272419379, -10.76823338735817970, 89.20000000000000284 ) ) ;
#202 = EDGE_CURVE ( 'NONE', #568, #342, #121, .T. ) ;
#203 = EDGE_LOOP ( 'NONE', ( #730, #878 ) ) ;
#204 = CARTESIAN_POINT ( 'NONE',  ( 54.78902942423745515, -10.06749315563054026, 79.20000000000000284 ) ) ;
#205 = DIRECTION ( 'NONE',  ( -0.8446294373469517280, 0.5353513926076699514, 0.000000000000000000 ) ) ;
#206 = ADVANCED_FACE ( 'NONE', ( #209 ), #473, .F. ) ;
#207 = ORIENTED_EDGE ( 'NONE', *, *, #269, .T. ) ;
#208 = CARTESIAN_POINT ( 'NONE',  ( 15.76358626343309766, 12.30891336045972118, 79.20000000000000284 ) ) ;
#209 = FACE_OUTER_BOUND ( 'NONE', #89, .T. ) ;
#210 = VERTEX_POINT ( 'NONE', #33 ) ;
#211 = DIRECTION ( 'NONE',  ( 1.000000000000000000, 0.000000000000000000, 0.000000000000000000 ) ) ;
#212 = VERTEX_POINT ( 'NONE', #849 ) ;
#213 = EDGE_CURVE ( 'NONE', #919, #1074, #854, .T. ) ;
#214 = CIRCLE ( 'NONE', #178, 2.999999999999996891 ) ;
#215 = DIRECTION ( 'NONE',  ( 0.000000000000000000, 0.000000000000000000, 1.000000000000000000 ) ) ;
#216 = EDGE_LOOP ( 'NONE', ( #767, #186, #674, #703 ) ) ;
#217 = CARTESIAN_POINT ( 'NONE',  ( 0.000000000000000000, 0.000000000000000000, 79.20000000000000284 ) ) ;
#218 = CIRCLE ( 'NONE', #722, 2.000000000000001776 ) ;
#219 = FACE_OUTER_BOUND ( 'NONE', #587, .T. ) ;
#220 = AXIS2_PLACEMENT_3D ( 'NONE', #103, #460, #226 ) ;
#221 = EDGE_CURVE ( 'NONE', #371, #752, #1023, .T. ) ;
#222 = AXIS2_PLACEMENT_3D ( 'NONE', #513, #888, #812 ) ;
#223 = DIRECTION ( 'NONE',  ( 0.000000000000000000, 0.000000000000000000, 1.000000000000000000 ) ) ;
#224 = ORIENTED_EDGE ( 'NONE', *, *, #883, .F. ) ;
#225 = LINE ( 'NONE', #394, #81 ) ;
#226 = DIRECTION ( 'NONE',  ( -0.8446294373469527272, -0.5353513926076686191, 0.000000000000000000 ) ) ;
#227 = DIRECTION ( 'NONE',  ( 0.000000000000000000, -0.000000000000000000, 1.000000000000000000 ) ) ;
#228 = ORIENTED_EDGE ( 'NONE', *, *, #612, .T. ) ;
#229 = CARTESIAN_POINT ( 'NONE',  ( 76.70684764991895577, 21.49593330404894687, 79.20000000000000284 ) ) ;
#230 = ORIENTED_EDGE ( 'NONE', *, *, #1163, .F. ) ;
#231 = CARTESIAN_POINT ( 'NONE',  ( 89.71061050272417958, -10.76823338735817970, 77.70000000000000284 ) ) ;
#232 = AXIS2_PLACEMENT_3D ( 'NONE', #497, #523, #879 ) ;
#233 = CARTESIAN_POINT ( 'NONE',  ( 66.53938949727582042, 10.76823338735818503, 77.70000000000000284 ) ) ;
#234 = ORIENTED_EDGE ( 'NONE', *, *, #719, .F. ) ;
#235 = DIRECTION ( 'NONE',  ( 0.000000000000000000, 1.000000000000000000, 0.000000000000000000 ) ) ;
#236 = ORIENTED_EDGE ( 'NONE', *, *, #831, .T. ) ;
#237 = DIRECTION ( 'NONE',  ( 0.9998108513511149154, -0.01944894651539719882, 0.000000000000000000 ) ) ;
#238 = VECTOR ( 'NONE', #392, 1000.000000000000114 ) ;
#239 = VECTOR ( 'NONE', #882, 1000.000000000000000 ) ;
#240 = FACE_BOUND ( 'NONE', #1133, .T. ) ;
#241 = AXIS2_PLACEMENT_3D ( 'NONE', #180, #654, #4 ) ;
#242 = ORIENTED_EDGE ( 'NONE', *, *, #365, .F. ) ;
#243 = DIRECTION ( 'NONE',  ( 0.000000000000000000, 0.000000000000000000, 1.000000000000000000 ) ) ;
#244 = ADVANCED_FACE ( 'NONE', ( #1123 ), #577, .F. ) ;
#245 = ORIENTED_EDGE ( 'NONE', *, *, #157, .T. ) ;
#246 = DIRECTION ( 'NONE',  ( 0.000000000000000000, 0.000000000000000000, -1.000000000000000000 ) ) ;
#247 = DIRECTION ( 'NONE',  ( -1.000000000000000000, 0.000000000000000000, 0.000000000000000000 ) ) ;
#248 = ORIENTED_EDGE ( 'NONE', *, *, #221, .T. ) ;
#249 = CARTESIAN_POINT ( 'NONE',  ( 0.000000000000000000, 0.000000000000000000, 79.20000000000000284 ) ) ;
#250 = ORIENTED_EDGE ( 'NONE', *, *, #468, .T. ) ;
#251 = CARTESIAN_POINT ( 'NONE',  ( 64.53938949727582042, 10.76823338735818503, 77.70000000000000284 ) ) ;
#252 = EDGE_CURVE ( 'NONE', #1126, #403, #218, .T. ) ;
#253 = LINE ( 'NONE', #176, #431 ) ;
#254 = AXIS2_PLACEMENT_3D ( 'NONE', #962, #19, #774 ) ;
#255 = AXIS2_PLACEMENT_3D ( 'NONE', #141, #243, #410 ) ;
#256 = CARTESIAN_POINT ( 'NONE',  ( 64.53938949727582042, 10.76823338735818503, 77.70000000000000284 ) ) ;
#257 = CARTESIAN_POINT ( 'NONE',  ( 18.24953604138439900, 8.182568928778708894, 79.20000000000000284 ) ) ;
#258 = ORIENTED_EDGE ( 'NONE', *, *, #1057, .F. ) ;
#259 = FACE_OUTER_BOUND ( 'NONE', #67, .T. ) ;
#260 = AXIS2_PLACEMENT_3D ( 'NONE', #400, #43, #247 ) ;
#261 = EDGE_CURVE ( 'NONE', #518, #371, #898, .T. ) ;
#262 = FACE_OUTER_BOUND ( 'NONE', #797, .T. ) ;
#263 = VERTEX_POINT ( 'NONE', #128 ) ;
#264 = ORIENTED_EDGE ( 'NONE', *, *, #590, .T. ) ;
#265 = CYLINDRICAL_SURFACE ( 'NONE', #1116, 2.000000000000001776 ) ;
#266 = CARTESIAN_POINT ( 'NONE',  ( 57.52404622943284807, -8.834738891675801398, 79.20000000000000284 ) ) ;
#267 = EDGE_CURVE ( 'NONE', #7, #333, #515, .T. ) ;
#268 = ORIENTED_EDGE ( 'NONE', *, *, #570, .F. ) ;
#269 = EDGE_CURVE ( 'NONE', #489, #1141, #561, .T. ) ;
#270 = EDGE_LOOP ( 'NONE', ( #738, #1183 ) ) ;
#271 = DIRECTION ( 'NONE',  ( 0.000000000000000000, 0.000000000000000000, -1.000000000000000000 ) ) ;
#272 = FACE_OUTER_BOUND ( 'NONE', #1082, .T. ) ;
#273 = CARTESIAN_POINT ( 'NONE',  ( 54.78902942423745515, 10.06749315563054026, 79.20000000000000284 ) ) ;
#274 = AXIS2_PLACEMENT_3D ( 'NONE', #315, #684, #211 ) ;
#275 = EDGE_CURVE ( 'NONE', #1158, #263, #584, .T. ) ;
#276 = ORIENTED_EDGE ( 'NONE', *, *, #419, .F. ) ;
#277 = DIRECTION ( 'NONE',  ( 0.000000000000000000, 0.000000000000000000, 1.000000000000000000 ) ) ;
#278 = AXIS2_PLACEMENT_3D ( 'NONE', #461, #17, #948 ) ;
#279 = LINE ( 'NONE', #442, #1148 ) ;
#280 =( GEOMETRIC_REPRESENTATION_CONTEXT ( 3 ) GLOBAL_UNCERTAINTY_ASSIGNED_CONTEXT ( ( #63 ) ) GLOBAL_UNIT_ASSIGNED_CONTEXT ( ( #5, #1103, #807 ) ) REPRESENTATION_CONTEXT ( 'NONE', 'WORKASPACE' ) );
#281 = CARTESIAN_POINT ( 'NONE',  ( 87.71061050272419379, -10.76823338735817970, 89.20000000000000284 ) ) ;
#282 = CARTESIAN_POINT ( 'NONE',  ( 0.000000000000000000, 0.000000000000000000, 0.000000000000000000 ) ) ;
#283 = ORIENTED_EDGE ( 'NONE', *, *, #665, .T. ) ;
#284 = LINE ( 'NONE', #372, #1184 ) ;
#285 = EDGE_CURVE ( 'NONE', #212, #1013, #50, .T. ) ;
#286 = AXIS2_PLACEMENT_3D ( 'NONE', #706, #350, #150 ) ;
#287 = FACE_BOUND ( 'NONE', #641, .T. ) ;
#288 = CARTESIAN_POINT ( 'NONE',  ( 77.12500000000000000, -10.09999999999999964, 89.20000000000000284 ) ) ;
#289 = ORIENTED_EDGE ( 'NONE', *, *, #1095, .T. ) ;
#290 = DIRECTION ( 'NONE',  ( 0.000000000000000000, -1.000000000000000000, 0.000000000000000000 ) ) ;
#291 = EDGE_CURVE ( 'NONE', #591, #1158, #30, .T. ) ;
#292 = CARTESIAN_POINT ( 'NONE',  ( -0.3889789303078983185, -19.99621702702229697, 79.20000000000000284 ) ) ;
#293 = DIRECTION ( 'NONE',  ( 0.8345984957439479546, -0.5508587395167107159, 0.000000000000000000 ) ) ;
#294 = ORIENTED_EDGE ( 'NONE', *, *, #8, .T. ) ;
#295 = FACE_OUTER_BOUND ( 'NONE', #899, .T. ) ;
#296 = ORIENTED_EDGE ( 'NONE', *, *, #678, .F. ) ;
#297 = DIRECTION ( 'NONE',  ( 0.000000000000000000, 0.000000000000000000, 1.000000000000000000 ) ) ;
#298 = ADVANCED_FACE ( 'NONE', ( #240, #596, #864, #493, #1169, #420 ), #782, .F. ) ;
#299 = STYLED_ITEM ( 'NONE', ( #165 ), #395 ) ;
#300 = DIRECTION ( 'NONE',  ( 0.000000000000000000, -1.000000000000000000, 0.000000000000000000 ) ) ;
#301 = VERTEX_POINT ( 'NONE', #681 ) ;
#302 = PLANE ( 'NONE',  #353 ) ;
#303 = AXIS2_PLACEMENT_3D ( 'NONE', #748, #964, #1117 ) ;
#304 = ORIENTED_EDGE ( 'NONE', *, *, #540, .T. ) ;
#305 = CARTESIAN_POINT ( 'NONE',  ( 77.12500000000000000, 0.000000000000000000, 89.20000000000000284 ) ) ;
#306 = ORIENTED_EDGE ( 'NONE', *, *, #481, .F. ) ;
#307 = DIRECTION ( 'NONE',  ( 0.8345984957439479546, 0.5508587395167107159, 0.000000000000000000 ) ) ;
#308 = CARTESIAN_POINT ( 'NONE',  ( 19.25983586667859981, -20.37843807169399923, 89.20000000000000284 ) ) ;
#309 = ORIENTED_EDGE ( 'NONE', *, *, #213, .T. ) ;
#310 = CARTESIAN_POINT ( 'NONE',  ( 54.78902942423745515, 10.06749315563054026, 79.20000000000000284 ) ) ;
#311 = ADVANCED_FACE ( 'NONE', ( #1151 ), #987, .F. ) ;
#312 = VECTOR ( 'NONE', #809, 1000.000000000000114 ) ;
#313 = CARTESIAN_POINT ( 'NONE',  ( 18.45307813555104559, 11.01600844591851036, 89.20000000000000284 ) ) ;
#314 = EDGE_LOOP ( 'NONE', ( #184, #1066, #811, #354 ) ) ;
#315 = CARTESIAN_POINT ( 'NONE',  ( 66.35676661264180609, -10.58561050272418136, 77.70000000000000284 ) ) ;
#316 = AXIS2_PLACEMENT_3D ( 'NONE', #924, #728, #521 ) ;
#317 = CARTESIAN_POINT ( 'NONE',  ( 0.000000000000000000, 0.000000000000000000, 89.20000000000000284 ) ) ;
#318 = CIRCLE ( 'NONE', #1007, 2.999999999999996891 ) ;
#319 = CARTESIAN_POINT ( 'NONE',  ( 66.35676661264180609, -10.58561050272418136, 89.20000000000000284 ) ) ;
#320 = ORIENTED_EDGE ( 'NONE', *, *, #419, .T. ) ;
#321 = CARTESIAN_POINT ( 'NONE',  ( 68.35676661264180609, -10.58561050272418136, 89.20000000000000284 ) ) ;
#322 = ORIENTED_EDGE ( 'NONE', *, *, #612, .F. ) ;
#323 = PLANE ( 'NONE',  #921 ) ;
#324 = EDGE_CURVE ( 'NONE', #489, #697, #57, .T. ) ;
#325 = DIRECTION ( 'NONE',  ( 0.000000000000000000, 1.000000000000000000, 0.000000000000000000 ) ) ;
#326 = VERTEX_POINT ( 'NONE', #794 ) ;
#327 = CARTESIAN_POINT ( 'NONE',  ( -0.3889789303078983185, -19.99621702702229697, 89.20000000000000284 ) ) ;
#328 = ORIENTED_EDGE ( 'NONE', *, *, #556, .F. ) ;
#329 = DIRECTION ( 'NONE',  ( -0.01944894651539719882, -0.9998108513511149154, 0.000000000000000000 ) ) ;
#330 = AXIS2_PLACEMENT_3D ( 'NONE', #45, #1159, #511 ) ;
#331 = DIRECTION ( 'NONE',  ( -0.000000000000000000, -0.000000000000000000, 1.000000000000000000 ) ) ;
#332 = EDGE_CURVE ( 'NONE', #326, #688, #145, .T. ) ;
#333 = VERTEX_POINT ( 'NONE', #613 ) ;
#334 = LINE ( 'NONE', #229, #102 ) ;
#335 = AXIS2_PLACEMENT_3D ( 'NONE', #201, #1032, #656 ) ;
#336 = ORIENTED_EDGE ( 'NONE', *, *, #582, .F. ) ;
#337 = DIRECTION ( 'NONE',  ( 0.000000000000000000, 0.000000000000000000, 1.000000000000000000 ) ) ;
#338 = CIRCLE ( 'NONE', #680, 2.000000000000001776 ) ;
#339 = DIRECTION ( 'NONE',  ( -0.000000000000000000, -0.000000000000000000, 1.000000000000000000 ) ) ;
#340 = AXIS2_PLACEMENT_3D ( 'NONE', #1120, #271, #290 ) ;
#341 = PRODUCT_RELATED_PRODUCT_CATEGORY ( 'part', '', ( #494 ) ) ;
#342 = VERTEX_POINT ( 'NONE', #313 ) ;
#343 = CYLINDRICAL_SURFACE ( 'NONE', #698, 14.00000000000000000 ) ;
#344 = VERTEX_POINT ( 'NONE', #1157 ) ;
#345 = CARTESIAN_POINT ( 'NONE',  ( 0.000000000000000000, 0.000000000000000000, 79.20000000000000284 ) ) ;
#346 = CARTESIAN_POINT ( 'NONE',  ( -0.3889789303078983185, -19.99621702702229697, 79.20000000000000284 ) ) ;
#347 = DIRECTION ( 'NONE',  ( 0.000000000000000000, 0.000000000000000000, -1.000000000000000000 ) ) ;
#348 = LINE ( 'NONE', #1067, #443 ) ;
#349 = ORIENTED_EDGE ( 'NONE', *, *, #397, .F. ) ;
#350 = DIRECTION ( 'NONE',  ( -0.000000000000000000, -0.000000000000000000, 1.000000000000000000 ) ) ;
#351 = ADVANCED_FACE ( 'NONE', ( #407, #775 ), #1144, .F. ) ;
#352 = DIRECTION ( 'NONE',  ( 0.000000000000000000, 0.000000000000000000, 1.000000000000000000 ) ) ;
#353 = AXIS2_PLACEMENT_3D ( 'NONE', #208, #1138, #950 ) ;
#354 = ORIENTED_EDGE ( 'NONE', *, *, #778, .T. ) ;
#355 = VERTEX_POINT ( 'NONE', #877 ) ;
#356 = FACE_OUTER_BOUND ( 'NONE', #498, .T. ) ;
#357 = AXIS2_PLACEMENT_3D ( 'NONE', #2, #925, #1012 ) ;
#358 = AXIS2_PLACEMENT_3D ( 'NONE', #1065, #693, #488 ) ;
#359 = CARTESIAN_POINT ( 'NONE',  ( -0.3889789303078983185, 19.99621702702229697, 79.20000000000000284 ) ) ;
#360 = ORIENTED_EDGE ( 'NONE', *, *, #831, .F. ) ;
#361 =( LENGTH_UNIT ( ) NAMED_UNIT ( * ) SI_UNIT ( .MILLI., .METRE. ) );
#362 = ORIENTED_EDGE ( 'NONE', *, *, #76, .F. ) ;
#363 = CARTESIAN_POINT ( 'NONE',  ( 18.45307813555104559, -11.01600844591853523, 89.20000000000000284 ) ) ;
#364 = DIRECTION ( 'NONE',  ( 0.000000000000000000, 0.000000000000000000, 1.000000000000000000 ) ) ;
#365 = EDGE_CURVE ( 'NONE', #1193, #1080, #1058, .T. ) ;
#366 = CARTESIAN_POINT ( 'NONE',  ( 85.71061050272420800, -10.76823338735817970, 77.70000000000000284 ) ) ;
#367 = ORIENTED_EDGE ( 'NONE', *, *, #1089, .T. ) ;
#368 = FACE_OUTER_BOUND ( 'NONE', #538, .T. ) ;
#369 = DIRECTION ( 'NONE',  ( 1.000000000000000000, 0.000000000000000000, 0.000000000000000000 ) ) ;
#370 = ORIENTED_EDGE ( 'NONE', *, *, #951, .T. ) ;
#371 = VERTEX_POINT ( 'NONE', #1070 ) ;
#372 = CARTESIAN_POINT ( 'NONE',  ( 89.89323338735819391, 10.58561050272418314, 77.70000000000000284 ) ) ;
#373 = DIRECTION ( 'NONE',  ( 0.000000000000000000, 0.000000000000000000, -1.000000000000000000 ) ) ;
#374 = AXIS2_PLACEMENT_3D ( 'NONE', #450, #1177, #369 ) ;
#375 = CARTESIAN_POINT ( 'NONE',  ( 57.29282491146929601, -11.72006937418067096, 79.20000000000000284 ) ) ;
#376 = CIRCLE ( 'NONE', #303, 2.000000000000001776 ) ;
#377 = ORIENTED_EDGE ( 'NONE', *, *, #324, .T. ) ;
#378 = FACE_OUTER_BOUND ( 'NONE', #885, .T. ) ;
#379 = VECTOR ( 'NONE', #464, 1000.000000000000000 ) ;
#380 = CARTESIAN_POINT ( 'NONE',  ( 89.89323338735819391, 10.58561050272418314, 77.70000000000000284 ) ) ;
#381 = DIRECTION ( 'NONE',  ( 0.000000000000000000, 0.000000000000000000, 1.000000000000000000 ) ) ;
#382 = ORIENTED_EDGE ( 'NONE', *, *, #426, .T. ) ;
#383 = CYLINDRICAL_SURFACE ( 'NONE', #254, 10.09999999999999964 ) ;
#384 = ORIENTED_EDGE ( 'NONE', *, *, #252, .F. ) ;
#385 = EDGE_CURVE ( 'NONE', #716, #212, #660, .T. ) ;
#386 = CARTESIAN_POINT ( 'NONE',  ( 85.71061050272420800, -10.76823338735817970, 89.20000000000000284 ) ) ;
#387 = DIRECTION ( 'NONE',  ( 0.000000000000000000, 0.000000000000000000, -1.000000000000000000 ) ) ;
#388 = ORIENTED_EDGE ( 'NONE', *, *, #433, .F. ) ;
#389 = DIRECTION ( 'NONE',  ( 0.000000000000000000, 0.000000000000000000, 1.000000000000000000 ) ) ;
#390 = ORIENTED_EDGE ( 'NONE', *, *, #267, .F. ) ;
#391 = VECTOR ( 'NONE', #1050, 1000.000000000000000 ) ;
#392 = DIRECTION ( 'NONE',  ( -0.9998108513511149154, 0.01944894651539719882, 0.000000000000000000 ) ) ;
#393 = VERTEX_POINT ( 'NONE', #438 ) ;
#394 = CARTESIAN_POINT ( 'NONE',  ( 57.52404622943284807, 8.834738891675801398, 79.20000000000000284 ) ) ;
#395 = MANIFOLD_SOLID_BREP ( 'Cut-Extrude1', #199 ) ;
#396 = DIRECTION ( 'NONE',  ( 0.000000000000000000, -1.000000000000000000, 0.000000000000000000 ) ) ;
#397 = EDGE_CURVE ( 'NONE', #403, #1126, #338, .T. ) ;
#398 = VERTEX_POINT ( 'NONE', #904 ) ;
#399 = CARTESIAN_POINT ( 'NONE',  ( 54.78902942423745515, 10.06749315563054026, 79.20000000000000284 ) ) ;
#400 = CARTESIAN_POINT ( 'NONE',  ( 87.71061050272419379, -10.76823338735817970, 77.70000000000000284 ) ) ;
#401 = PRODUCT_DEFINITION_SHAPE ( 'NONE', 'NONE',  #598 ) ;
#402 = EDGE_CURVE ( 'NONE', #648, #945, #253, .T. ) ;
#403 = VERTEX_POINT ( 'NONE', #1010 ) ;
#404 = DIRECTION ( 'NONE',  ( 0.8345984957439479546, -0.5508587395167107159, 0.000000000000000000 ) ) ;
#405 = AXIS2_PLACEMENT_3D ( 'NONE', #1073, #622, #601 ) ;
#406 = DIRECTION ( 'NONE',  ( -0.01944894651539729596, -0.9998108513511148043, 0.000000000000000000 ) ) ;
#407 = FACE_BOUND ( 'NONE', #436, .T. ) ;
#408 = AXIS2_PLACEMENT_3D ( 'NONE', #572, #215, #293 ) ;
#409 = ORIENTED_EDGE ( 'NONE', *, *, #166, .F. ) ;
#410 = DIRECTION ( 'NONE',  ( 0.000000000000000000, 1.000000000000000000, 0.000000000000000000 ) ) ;
#411 = EDGE_LOOP ( 'NONE', ( #990, #893, #309, #857 ) ) ;
#412 = FACE_BOUND ( 'NONE', #510, .T. ) ;
#413 = AXIS2_PLACEMENT_3D ( 'NONE', #1181, #1094, #908 ) ;
#414 = DIRECTION ( 'NONE',  ( 0.000000000000000000, 1.000000000000000000, 0.000000000000000000 ) ) ;
#415 = ORIENTED_EDGE ( 'NONE', *, *, #520, .T. ) ;
#416 = DIRECTION ( 'NONE',  ( -0.000000000000000000, -0.000000000000000000, 1.000000000000000000 ) ) ;
#417 = EDGE_LOOP ( 'NONE', ( #855, #773, #932, #1185, #440, #362, #143, #506, #234, #276, #600, #610, #795, #1016, #72, #814 ) ) ;
#418 = DIRECTION ( 'NONE',  ( -0.000000000000000000, -0.000000000000000000, 1.000000000000000000 ) ) ;
#419 = EDGE_CURVE ( 'NONE', #344, #568, #801, .T. ) ;
#420 = FACE_OUTER_BOUND ( 'NONE', #196, .T. ) ;
#421 = VERTEX_POINT ( 'NONE', #359 ) ;
#422 = FACE_OUTER_BOUND ( 'NONE', #216, .T. ) ;
#423 = ORIENTED_EDGE ( 'NONE', *, *, #734, .T. ) ;
#424 = CARTESIAN_POINT ( 'NONE',  ( 18.24953604138439900, 8.182568928778708894, 89.20000000000000284 ) ) ;
#425 = CARTESIAN_POINT ( 'NONE',  ( 54.73068258469125169, 13.06692570968390044, 79.20000000000000284 ) ) ;
#426 = EDGE_CURVE ( 'NONE', #578, #1074, #720, .T. ) ;
#427 = ORIENTED_EDGE ( 'NONE', *, *, #865, .F. ) ;
#428 = CARTESIAN_POINT ( 'NONE',  ( 27.41391424961059897, 12.53554283300825922, 89.20000000000000284 ) ) ;
#429 = EDGE_LOOP ( 'NONE', ( #390, #123, #427, #955 ) ) ;
#430 = DIRECTION ( 'NONE',  ( 0.000000000000000000, 0.000000000000000000, -1.000000000000000000 ) ) ;
#431 = VECTOR ( 'NONE', #830, 1000.000000000000000 ) ;
#432 = DIRECTION ( 'NONE',  ( 0.000000000000000000, 0.000000000000000000, 1.000000000000000000 ) ) ;
#433 = EDGE_CURVE ( 'NONE', #1193, #988, #1182, .T. ) ;
#434 = ORIENTED_EDGE ( 'NONE', *, *, #179, .T. ) ;
#435 = CARTESIAN_POINT ( 'NONE',  ( 18.24953604138439900, -8.182568928778708894, 79.20000000000000284 ) ) ;
#436 = EDGE_LOOP ( 'NONE', ( #242, #328 ) ) ;
#437 = FACE_OUTER_BOUND ( 'NONE', #1093, .T. ) ;
#438 = CARTESIAN_POINT ( 'NONE',  ( 20.92861960804579624, -12.40938682214885880, 79.20000000000000284 ) ) ;
#439 = CARTESIAN_POINT ( 'NONE',  ( 15.76358626343309766, 12.30891336045972118, 79.20000000000000284 ) ) ;
#440 = ORIENTED_EDGE ( 'NONE', *, *, #763, .T. ) ;
#441 = CARTESIAN_POINT ( 'NONE',  ( 87.89323338735819391, 10.58561050272418314, 77.70000000000000284 ) ) ;
#442 = CARTESIAN_POINT ( 'NONE',  ( 76.70684764991895577, 21.49593330404894687, 79.20000000000000284 ) ) ;
#443 = VECTOR ( 'NONE', #160, 1000.000000000000000 ) ;
#444 = PLANE ( 'NONE',  #597 ) ;
#445 = ORIENTED_EDGE ( 'NONE', *, *, #114, .T. ) ;
#446 = DIRECTION ( 'NONE',  ( 0.000000000000000000, 0.000000000000000000, 1.000000000000000000 ) ) ;
#447 = AXIS2_PLACEMENT_3D ( 'NONE', #233, #1162, #1021 ) ;
#448 = ADVANCED_FACE ( 'NONE', ( #262 ), #1107, .T. ) ;
#449 = AXIS2_PLACEMENT_3D ( 'NONE', #595, #246, #611 ) ;
#450 = CARTESIAN_POINT ( 'NONE',  ( 66.53938949727582042, 10.76823338735818503, 89.20000000000000284 ) ) ;
#451 = ORIENTED_EDGE ( 'NONE', *, *, #889, .F. ) ;
#452 = APPLICATION_PROTOCOL_DEFINITION ( 'draft international standard', 'automotive_design', 1998, #947 ) ;
#453 = AXIS2_PLACEMENT_3D ( 'NONE', #999, #156, #817 ) ;
#454 = VERTEX_POINT ( 'NONE', #266 ) ;
#455 = DIRECTION ( 'NONE',  ( 0.000000000000000000, 1.000000000000000000, 0.000000000000000000 ) ) ;
#456 = EDGE_CURVE ( 'NONE', #24, #60, #279, .T. ) ;
#457 = DIRECTION ( 'NONE',  ( -0.000000000000000000, -0.000000000000000000, 1.000000000000000000 ) ) ;
#458 = ORIENTED_EDGE ( 'NONE', *, *, #221, .F. ) ;
#459 = CARTESIAN_POINT ( 'NONE',  ( 76.70684764991895577, -21.49593330404900016, 89.20000000000000284 ) ) ;
#460 = DIRECTION ( 'NONE',  ( 0.000000000000000000, 0.000000000000000000, 1.000000000000000000 ) ) ;
#461 = CARTESIAN_POINT ( 'NONE',  ( 54.78902942423745515, -10.06749315563054026, 89.20000000000000284 ) ) ;
#462 = CIRCLE ( 'NONE', #405, 10.09999999999999964 ) ;
#463 = VERTEX_POINT ( 'NONE', #915 ) ;
#464 = DIRECTION ( 'NONE',  ( 0.000000000000000000, 0.000000000000000000, 1.000000000000000000 ) ) ;
#465 = AXIS2_PLACEMENT_3D ( 'NONE', #281, #821, #621 ) ;
#466 = PLANE ( 'NONE',  #682 ) ;
#467 = CARTESIAN_POINT ( 'NONE',  ( 20.92861960804579624, -12.40938682214885880, 79.20000000000000284 ) ) ;
#468 = EDGE_CURVE ( 'NONE', #1175, #533, #1002, .T. ) ;
#469 = ORIENTED_EDGE ( 'NONE', *, *, #540, .F. ) ;
#470 = CARTESIAN_POINT ( 'NONE',  ( 0.000000000000000000, 12.00000000000000000, 89.20000000000000284 ) ) ;
#471 = ORIENTED_EDGE ( 'NONE', *, *, #889, .T. ) ;
#472 = DIRECTION ( 'NONE',  ( 0.000000000000000000, 1.000000000000000000, 0.000000000000000000 ) ) ;
#473 = CYLINDRICAL_SURFACE ( 'NONE', #408, 2.999999999999996891 ) ;
#474 = ORIENTED_EDGE ( 'NONE', *, *, #385, .T. ) ;
#475 = CYLINDRICAL_SURFACE ( 'NONE', #870, 3.000000000000002220 ) ;
#476 = EDGE_CURVE ( 'NONE', #342, #723, #623, .T. ) ;
#477 = CARTESIAN_POINT ( 'NONE',  ( 66.35676661264180609, -10.58561050272418136, 77.70000000000000284 ) ) ;
#478 = VERTEX_POINT ( 'NONE', #896 ) ;
#479 = CARTESIAN_POINT ( 'NONE',  ( 54.78902942423745515, 10.06749315563054026, 79.20000000000000284 ) ) ;
#480 = AXIS2_PLACEMENT_3D ( 'NONE', #982, #872, #1179 ) ;
#481 = EDGE_CURVE ( 'NONE', #1042, #1013, #1006, .T. ) ;
#482 = AXIS2_PLACEMENT_3D ( 'NONE', #943, #673, #300 ) ;
#483 = DIRECTION ( 'NONE',  ( 0.000000000000000000, 0.000000000000000000, 1.000000000000000000 ) ) ;
#484 = EDGE_LOOP ( 'NONE', ( #384, #349 ) ) ;
#485 = DIRECTION ( 'NONE',  ( 0.000000000000000000, 0.000000000000000000, 1.000000000000000000 ) ) ;
#486 = ORIENTED_EDGE ( 'NONE', *, *, #905, .F. ) ;
#487 = CIRCLE ( 'NONE', #222, 3.000000000000001332 ) ;
#488 = DIRECTION ( 'NONE',  ( 0.000000000000000000, 1.000000000000000000, 0.000000000000000000 ) ) ;
#489 = VERTEX_POINT ( 'NONE', #826 ) ;
#490 = PLANE ( 'NONE',  #330 ) ;
#491 = ORIENTED_EDGE ( 'NONE', *, *, #324, .F. ) ;
#492 = DIRECTION ( 'NONE',  ( -0.8446294373469527272, -0.5353513926076686191, 0.000000000000000000 ) ) ;
#493 = FACE_BOUND ( 'NONE', #75, .T. ) ;
#494 = PRODUCT ( 'Cover', 'Cover', '', ( #815 ) ) ;
#495 = ADVANCED_FACE ( 'NONE', ( #272 ), #637, .T. ) ;
#496 = EDGE_LOOP ( 'NONE', ( #969, #1085, #47, #34 ) ) ;
#497 = CARTESIAN_POINT ( 'NONE',  ( 39.31250000000000000, 0.000000000000000000, 86.20000000000001705 ) ) ;
#498 = EDGE_LOOP ( 'NONE', ( #491, #82, #657, #1040 ) ) ;
#499 = CIRCLE ( 'NONE', #42, 10.09999999999999964 ) ;
#500 = DIRECTION ( 'NONE',  ( 0.000000000000000000, 1.000000000000000000, 0.000000000000000000 ) ) ;
#501 = CARTESIAN_POINT ( 'NONE',  ( 39.31250000000000000, 0.000000000000000000, 79.20000000000000284 ) ) ;
#502 = AXIS2_PLACEMENT_3D ( 'NONE', #111, #1046, #205 ) ;
#503 = ORIENTED_EDGE ( 'NONE', *, *, #1011, .T. ) ;
#504 = CARTESIAN_POINT ( 'NONE',  ( 76.70684764991895577, -21.49593330404900016, 79.20000000000000284 ) ) ;
#505 = EDGE_CURVE ( 'NONE', #945, #190, #602, .T. ) ;
#506 = ORIENTED_EDGE ( 'NONE', *, *, #6, .F. ) ;
#507 = CARTESIAN_POINT ( 'NONE',  ( 68.35676661264180609, -10.58561050272418136, 77.70000000000000284 ) ) ;
#508 = CIRCLE ( 'NONE', #340, 21.50000000000000000 ) ;
#509 = DIRECTION ( 'NONE',  ( 0.000000000000000000, 0.000000000000000000, -1.000000000000000000 ) ) ;
#510 = EDGE_LOOP ( 'NONE', ( #38, #1172 ) ) ;
#511 = DIRECTION ( 'NONE',  ( 0.000000000000000000, 0.000000000000000000, -1.000000000000000000 ) ) ;
#512 = ORIENTED_EDGE ( 'NONE', *, *, #719, .T. ) ;
#513 = CARTESIAN_POINT ( 'NONE',  ( 20.98696644759190377, 9.409954268095500396, 79.20000000000000284 ) ) ;
#514 = ADVANCED_FACE ( 'NONE', ( #194, #189, #287, #868, #788, #219, #412, #132 ), #466, .T. ) ;
#515 = LINE ( 'NONE', #425, #940 ) ;
#516 = ORIENTED_EDGE ( 'NONE', *, *, #633, .F. ) ;
#517 = CARTESIAN_POINT ( 'NONE',  ( -0.3889789303078983185, 19.99621702702229697, 89.20000000000000284 ) ) ;
#518 = VERTEX_POINT ( 'NONE', #97 ) ;
#519 = DIRECTION ( 'NONE',  ( -0.000000000000000000, -0.000000000000000000, 1.000000000000000000 ) ) ;
#520 = EDGE_CURVE ( 'NONE', #1164, #60, #581, .T. ) ;
#521 = DIRECTION ( 'NONE',  ( -1.000000000000000000, 0.000000000000000000, 0.000000000000000000 ) ) ;
#522 = ORIENTED_EDGE ( 'NONE', *, *, #570, .T. ) ;
#523 = DIRECTION ( 'NONE',  ( 0.000000000000000000, -0.000000000000000000, 1.000000000000000000 ) ) ;
#524 = VERTEX_POINT ( 'NONE', #386 ) ;
#525 = FACE_OUTER_BOUND ( 'NONE', #131, .T. ) ;
#526 = DIRECTION ( 'NONE',  ( 1.000000000000000000, 0.000000000000000000, 0.000000000000000000 ) ) ;
#527 = DIRECTION ( 'NONE',  ( 0.000000000000000000, 0.000000000000000000, 1.000000000000000000 ) ) ;
#528 = ORIENTED_EDGE ( 'NONE', *, *, #332, .T. ) ;
#529 = CARTESIAN_POINT ( 'NONE',  ( 87.71061050272419379, -10.76823338735817970, 77.70000000000000284 ) ) ;
#530 = DIRECTION ( 'NONE',  ( 0.000000000000000000, -1.000000000000000000, 0.000000000000000000 ) ) ;
#531 = ORIENTED_EDGE ( 'NONE', *, *, #1149, .F. ) ;
#532 = EDGE_CURVE ( 'NONE', #421, #1164, #198, .T. ) ;
#533 = VERTEX_POINT ( 'NONE', #380 ) ;
#534 = DIRECTION ( 'NONE',  ( 0.000000000000000000, 0.000000000000000000, 1.000000000000000000 ) ) ;
#535 = DIRECTION ( 'NONE',  ( 0.000000000000000000, 0.000000000000000000, -1.000000000000000000 ) ) ;
#536 = AXIS2_PLACEMENT_3D ( 'NONE', #1101, #534, #455 ) ;
#537 = EDGE_LOOP ( 'NONE', ( #289, #963, #77, #70 ) ) ;
#538 = EDGE_LOOP ( 'NONE', ( #159, #382, #666, #850 ) ) ;
#539 = DIRECTION ( 'NONE',  ( 0.9998108513511149154, -0.01944894651539719882, 0.000000000000000000 ) ) ;
#540 = EDGE_CURVE ( 'NONE', #1013, #1042, #725, .T. ) ;
#541 = CIRCLE ( 'NONE', #27, 21.50000000000000000 ) ;
#542 = VECTOR ( 'NONE', #331, 1000.000000000000000 ) ;
#543 = CIRCLE ( 'NONE', #1192, 14.00000000000000000 ) ;
#544 = DIRECTION ( 'NONE',  ( -0.01944894651539729596, -0.9998108513511148043, 0.000000000000000000 ) ) ;
#545 = ORIENTED_EDGE ( 'NONE', *, *, #520, .F. ) ;
#546 = AXIS2_PLACEMENT_3D ( 'NONE', #741, #920, #90 ) ;
#547 = EDGE_LOOP ( 'NONE', ( #1062, #283, #367, #1068 ) ) ;
#548 = DIRECTION ( 'NONE',  ( 0.000000000000000000, 0.000000000000000000, 1.000000000000000000 ) ) ;
#549 = EDGE_CURVE ( 'NONE', #263, #786, #626, .T. ) ;
#550 = DIRECTION ( 'NONE',  ( 0.000000000000000000, 0.000000000000000000, 1.000000000000000000 ) ) ;
#551 = CYLINDRICAL_SURFACE ( 'NONE', #820, 2.000000000000001776 ) ;
#552 = SHAPE_DEFINITION_REPRESENTATION ( #401, #708 ) ;
#553 = ORIENTED_EDGE ( 'NONE', *, *, #1149, .T. ) ;
#554 = CARTESIAN_POINT ( 'NONE',  ( 0.000000000000000000, 0.000000000000000000, 79.20000000000000284 ) ) ;
#555 = CARTESIAN_POINT ( 'NONE',  ( 66.35676661264180609, -10.58561050272418136, 77.70000000000000284 ) ) ;
#556 = EDGE_CURVE ( 'NONE', #1080, #1193, #625, .T. ) ;
#557 = AXIS2_PLACEMENT_3D ( 'NONE', #886, #704, #989 ) ;
#558 = DIRECTION ( 'NONE',  ( 0.000000000000000000, 0.000000000000000000, -1.000000000000000000 ) ) ;
#559 = EDGE_LOOP ( 'NONE', ( #695, #458, #1018, #1130, #451, #153, #659, #322, #616, #792, #976, #757 ) ) ;
#560 = CARTESIAN_POINT ( 'NONE',  ( 20.98696644759190377, 9.409954268095500396, 79.20000000000000284 ) ) ;
#561 = CIRCLE ( 'NONE', #1114, 12.00000000000000000 ) ;
#562 = FACE_OUTER_BOUND ( 'NONE', #1051, .T. ) ;
#563 = CARTESIAN_POINT ( 'NONE',  ( 60.13240375363249512, -13.17200337108739916, 79.20000000000000284 ) ) ;
#564 = CIRCLE ( 'NONE', #546, 3.000000000000002220 ) ;
#565 = VERTEX_POINT ( 'NONE', #848 ) ;
#566 = FACE_OUTER_BOUND ( 'NONE', #887, .T. ) ;
#567 = FACE_OUTER_BOUND ( 'NONE', #118, .T. ) ;
#568 = VERTEX_POINT ( 'NONE', #779 ) ;
#569 = FACE_OUTER_BOUND ( 'NONE', #593, .T. ) ;
#570 = EDGE_CURVE ( 'NONE', #573, #957, #376, .T. ) ;
#571 = ORIENTED_EDGE ( 'NONE', *, *, #847, .F. ) ;
#572 = CARTESIAN_POINT ( 'NONE',  ( 54.78902942423745515, -10.06749315563054026, 79.20000000000000284 ) ) ;
#573 = VERTEX_POINT ( 'NONE', #651 ) ;
#574 = CARTESIAN_POINT ( 'NONE',  ( 54.78902942423745515, -10.06749315563054026, 79.20000000000000284 ) ) ;
#575 = ADVANCED_FACE ( 'NONE', ( #970 ), #20, .F. ) ;
#576 = VECTOR ( 'NONE', #74, 1000.000000000000000 ) ;
#577 = CYLINDRICAL_SURFACE ( 'NONE', #840, 14.00000000000000000 ) ;
#578 = VERTEX_POINT ( 'NONE', #292 ) ;
#579 = DIRECTION ( 'NONE',  ( 0.8345984957439479546, -0.5508587395167107159, 0.000000000000000000 ) ) ;
#580 = ORIENTED_EDGE ( 'NONE', *, *, #365, .T. ) ;
#581 = LINE ( 'NONE', #843, #762 ) ;
#582 = EDGE_CURVE ( 'NONE', #210, #463, #1043, .T. ) ;
#583 = PRODUCT_DEFINITION_CONTEXT ( 'detailed design', #947, 'design' ) ;
#584 = LINE ( 'NONE', #966, #742 ) ;
#585 = ORIENTED_EDGE ( 'NONE', *, *, #172, .T. ) ;
#586 = CARTESIAN_POINT ( 'NONE',  ( 77.12500000000000000, 21.50000000000000000, 77.70000000000000284 ) ) ;
#587 = EDGE_LOOP ( 'NONE', ( #409, #545, #571, #901, #230, #336 ) ) ;
#588 = DIRECTION ( 'NONE',  ( 1.000000000000000000, 0.000000000000000000, 0.000000000000000000 ) ) ;
#589 = DIRECTION ( 'NONE',  ( 0.000000000000000000, 1.000000000000000000, 0.000000000000000000 ) ) ;
#590 = EDGE_CURVE ( 'NONE', #957, #573, #783, .T. ) ;
#591 = VERTEX_POINT ( 'NONE', #835 ) ;
#592 = DIRECTION ( 'NONE',  ( -0.9998108513511149154, -0.01944894651539709474, 0.000000000000000000 ) ) ;
#593 = EDGE_LOOP ( 'NONE', ( #268, #423, #140, #516 ) ) ;
#594 = VECTOR ( 'NONE', #1173, 1000.000000000000114 ) ;
#595 = CARTESIAN_POINT ( 'NONE',  ( 77.12500000000000000, 0.000000000000000000, 79.20000000000000284 ) ) ;
#596 = FACE_BOUND ( 'NONE', #838, .T. ) ;
#597 = AXIS2_PLACEMENT_3D ( 'NONE', #1109, #906, #1113 ) ;
#598 = PRODUCT_DEFINITION ( 'UNKNOWN', '', #953, #583 ) ;
#599 = CIRCLE ( 'NONE', #482, 21.50000000000000000 ) ;
#600 = ORIENTED_EDGE ( 'NONE', *, *, #772, .F. ) ;
#601 = DIRECTION ( 'NONE',  ( 0.000000000000000000, 1.000000000000000000, 0.000000000000000000 ) ) ;
#602 = CIRCLE ( 'NONE', #662, 10.09999999999999964 ) ;
#603 = EDGE_CURVE ( 'NONE', #161, #988, #543, .T. ) ;
#604 = CIRCLE ( 'NONE', #764, 20.00000000000000355 ) ;
#605 = ORIENTED_EDGE ( 'NONE', *, *, #983, .T. ) ;
#606 = CARTESIAN_POINT ( 'NONE',  ( 54.78902942423745515, -10.06749315563054026, 79.20000000000000284 ) ) ;
#607 = DIRECTION ( 'NONE',  ( 0.000000000000000000, 0.000000000000000000, 1.000000000000000000 ) ) ;
#608 = ORIENTED_EDGE ( 'NONE', *, *, #134, .T. ) ;
#609 = CARTESIAN_POINT ( 'NONE',  ( -0.3889789303078983185, -19.99621702702229697, 79.20000000000000284 ) ) ;
#610 = ORIENTED_EDGE ( 'NONE', *, *, #291, .F. ) ;
#611 = DIRECTION ( 'NONE',  ( 0.000000000000000000, -1.000000000000000000, 0.000000000000000000 ) ) ;
#612 = EDGE_CURVE ( 'NONE', #723, #263, #663, .T. ) ;
#613 = CARTESIAN_POINT ( 'NONE',  ( 54.73068258469125169, 13.06692570968390044, 79.20000000000000284 ) ) ;
#614 = EDGE_LOOP ( 'NONE', ( #967, #112, #927, #683 ) ) ;
#615 = DIRECTION ( 'NONE',  ( 0.000000000000000000, 0.000000000000000000, -1.000000000000000000 ) ) ;
#616 = ORIENTED_EDGE ( 'NONE', *, *, #476, .F. ) ;
#617 = DIRECTION ( 'NONE',  ( -0.000000000000000000, -0.000000000000000000, 1.000000000000000000 ) ) ;
#618 = VECTOR ( 'NONE', #416, 1000.000000000000000 ) ;
#619 = DIRECTION ( 'NONE',  ( 0.000000000000000000, 0.000000000000000000, -1.000000000000000000 ) ) ;
#620 = VECTOR ( 'NONE', #1129, 1000.000000000000000 ) ;
#621 = DIRECTION ( 'NONE',  ( -1.000000000000000000, 0.000000000000000000, 0.000000000000000000 ) ) ;
#622 = DIRECTION ( 'NONE',  ( 0.000000000000000000, 0.000000000000000000, 1.000000000000000000 ) ) ;
#623 = CIRCLE ( 'NONE', #1078, 3.000000000000001332 ) ;
#624 = DIRECTION ( 'NONE',  ( 0.000000000000000000, 0.000000000000000000, 1.000000000000000000 ) ) ;
#625 = CIRCLE ( 'NONE', #1170, 14.00000000000000000 ) ;
#626 = CIRCLE ( 'NONE', #220, 3.000000000000002220 ) ;
#627 = DIRECTION ( 'NONE',  ( 1.000000000000000000, 0.000000000000000000, 0.000000000000000000 ) ) ;
#628 = ADVANCED_FACE ( 'NONE', ( #562 ), #48, .F. ) ;
#629 = DIRECTION ( 'NONE',  ( -0.8446294373469527272, -0.5353513926076686191, 0.000000000000000000 ) ) ;
#630 = ORIENTED_EDGE ( 'NONE', *, *, #481, .T. ) ;
#631 = CARTESIAN_POINT ( 'NONE',  ( 0.000000000000000000, 0.000000000000000000, 89.20000000000000284 ) ) ;
#632 = CARTESIAN_POINT ( 'NONE',  ( 20.98696644759190377, 9.409954268095500396, 89.20000000000000284 ) ) ;
#633 = EDGE_CURVE ( 'NONE', #957, #1126, #110, .T. ) ;
#634 = FACE_OUTER_BOUND ( 'NONE', #155, .T. ) ;
#635 = ORIENTED_EDGE ( 'NONE', *, *, #275, .F. ) ;
#636 = LINE ( 'NONE', #829, #1045 ) ;
#637 = CYLINDRICAL_SURFACE ( 'NONE', #1003, 20.00000000000000355 ) ;
#638 = VECTOR ( 'NONE', #29, 1000.000000000000000 ) ;
#639 = DIRECTION ( 'NONE',  ( 0.000000000000000000, 0.000000000000000000, 1.000000000000000000 ) ) ;
#640 = CARTESIAN_POINT ( 'NONE',  ( 0.000000000000000000, 14.00000000000000000, 79.20000000000000284 ) ) ;
#641 = EDGE_LOOP ( 'NONE', ( #100, #1055 ) ) ;
#642 = CARTESIAN_POINT ( 'NONE',  ( 89.71061050272417958, -10.76823338735817970, 89.20000000000000284 ) ) ;
#643 = CIRCLE ( 'NONE', #278, 2.999999999999996891 ) ;
#644 = ADVANCED_FACE ( 'NONE', ( #259 ), #699, .T. ) ;
#645 = CARTESIAN_POINT ( 'NONE',  ( 39.31250000000000000, 0.000000000000000000, 89.20000000000000284 ) ) ;
#646 = CARTESIAN_POINT ( 'NONE',  ( 87.89323338735819391, 10.58561050272418314, 89.20000000000000284 ) ) ;
#647 =( NAMED_UNIT ( * ) PLANE_ANGLE_UNIT ( ) SI_UNIT ( $, .RADIAN. ) );
#648 = VERTEX_POINT ( 'NONE', #793 ) ;
#649 = DIRECTION ( 'NONE',  ( -0.000000000000000000, -0.000000000000000000, 1.000000000000000000 ) ) ;
#650 = EDGE_CURVE ( 'NONE', #688, #326, #1134, .T. ) ;
#651 = CARTESIAN_POINT ( 'NONE',  ( 64.35676661264180609, -10.58561050272418136, 77.70000000000000284 ) ) ;
#652 = DIRECTION ( 'NONE',  ( -1.000000000000000000, 0.000000000000000000, 0.000000000000000000 ) ) ;
#653 = ORIENTED_EDGE ( 'NONE', *, *, #31, .T. ) ;
#654 = DIRECTION ( 'NONE',  ( 0.000000000000000000, 0.000000000000000000, 1.000000000000000000 ) ) ;
#655 = DIRECTION ( 'NONE',  ( 0.000000000000000000, -1.000000000000000000, 0.000000000000000000 ) ) ;
#656 = DIRECTION ( 'NONE',  ( -1.000000000000000000, 0.000000000000000000, 0.000000000000000000 ) ) ;
#657 = ORIENTED_EDGE ( 'NONE', *, *, #678, .T. ) ;
#658 = CYLINDRICAL_SURFACE ( 'NONE', #718, 12.00000000000000000 ) ;
#659 = ORIENTED_EDGE ( 'NONE', *, *, #549, .F. ) ;
#660 = CIRCLE ( 'NONE', #447, 2.000000000000001776 ) ;
#661 = DIRECTION ( 'NONE',  ( 0.000000000000000000, 0.000000000000000000, 1.000000000000000000 ) ) ;
#662 = AXIS2_PLACEMENT_3D ( 'NONE', #1155, #1147, #930 ) ;
#663 = CIRCLE ( 'NONE', #15, 20.00000000000000355 ) ;
#664 = CARTESIAN_POINT ( 'NONE',  ( 54.78902942423745515, 10.06749315563054026, 89.20000000000000284 ) ) ;
#665 = EDGE_CURVE ( 'NONE', #301, #355, #318, .T. ) ;
#666 = ORIENTED_EDGE ( 'NONE', *, *, #847, .T. ) ;
#667 = FACE_OUTER_BOUND ( 'NONE', #784, .T. ) ;
#668 = ORIENTED_EDGE ( 'NONE', *, *, #385, .F. ) ;
#669 = DIRECTION ( 'NONE',  ( 0.8345984957439479546, 0.5508587395167107159, 0.000000000000000000 ) ) ;
#670 = EDGE_CURVE ( 'NONE', #421, #578, #604, .T. ) ;
#671 = ORIENTED_EDGE ( 'NONE', *, *, #913, .F. ) ;
#672 = CARTESIAN_POINT ( 'NONE',  ( 68.53938949727582042, 10.76823338735818503, 89.20000000000000284 ) ) ;
#673 = DIRECTION ( 'NONE',  ( 0.000000000000000000, 0.000000000000000000, -1.000000000000000000 ) ) ;
#674 = ORIENTED_EDGE ( 'NONE', *, *, #433, .T. ) ;
#675 = DIRECTION ( 'NONE',  ( 0.8345984957439479546, 0.5508587395167107159, 0.000000000000000000 ) ) ;
#676 = VECTOR ( 'NONE', #751, 1000.000000000000000 ) ;
#677 = ORIENTED_EDGE ( 'NONE', *, *, #1187, .T. ) ;
#678 = EDGE_CURVE ( 'NONE', #1141, #891, #1069, .T. ) ;
#679 = CIRCLE ( 'NONE', #837, 2.999999999999996891 ) ;
#680 = AXIS2_PLACEMENT_3D ( 'NONE', #1189, #432, #627 ) ;
#681 = CARTESIAN_POINT ( 'NONE',  ( 57.29282491146929601, -11.72006937418067274, 79.20000000000000284 ) ) ;
#682 = AXIS2_PLACEMENT_3D ( 'NONE', #645, #1128, #472 ) ;
#683 = ORIENTED_EDGE ( 'NONE', *, *, #25, .T. ) ;
#684 = DIRECTION ( 'NONE',  ( -0.000000000000000000, -0.000000000000000000, 1.000000000000000000 ) ) ;
#685 = CARTESIAN_POINT ( 'NONE',  ( 66.53938949727582042, 10.76823338735818503, 89.20000000000000284 ) ) ;
#686 = ADVANCED_FACE ( 'NONE', ( #144 ), #323, .T. ) ;
#687 = DIRECTION ( 'NONE',  ( 0.000000000000000000, 0.000000000000000000, 1.000000000000000000 ) ) ;
#688 = VERTEX_POINT ( 'NONE', #231 ) ;
#689 = FACE_OUTER_BOUND ( 'NONE', #1124, .T. ) ;
#690 = VERTEX_POINT ( 'NONE', #691 ) ;
#691 = CARTESIAN_POINT ( 'NONE',  ( 57.29282491146929601, 11.72006937418067274, 89.20000000000000284 ) ) ;
#692 = EDGE_CURVE ( 'NONE', #463, #565, #1176, .T. ) ;
#693 = DIRECTION ( 'NONE',  ( 0.000000000000000000, -0.000000000000000000, 1.000000000000000000 ) ) ;
#694 = ADVANCED_FACE ( 'NONE', ( #437 ), #986, .F. ) ;
#695 = ORIENTED_EDGE ( 'NONE', *, *, #1136, .F. ) ;
#696 = FACE_BOUND ( 'NONE', #974, .T. ) ;
#697 = VERTEX_POINT ( 'NONE', #717 ) ;
#698 = AXIS2_PLACEMENT_3D ( 'NONE', #249, #59, #235 ) ;
#699 = CYLINDRICAL_SURFACE ( 'NONE', #449, 21.50000000000000000 ) ;
#700 = CARTESIAN_POINT ( 'NONE',  ( 20.98696644759190377, -9.409954268095530594, 79.20000000000000284 ) ) ;
#701 = VECTOR ( 'NONE', #808, 1000.000000000000000 ) ;
#702 = EDGE_CURVE ( 'NONE', #891, #697, #825, .T. ) ;
#703 = ORIENTED_EDGE ( 'NONE', *, *, #603, .F. ) ;
#704 = DIRECTION ( 'NONE',  ( 0.000000000000000000, 0.000000000000000000, -1.000000000000000000 ) ) ;
#705 = ORIENTED_EDGE ( 'NONE', *, *, #166, .T. ) ;
#706 = CARTESIAN_POINT ( 'NONE',  ( 66.53938949727582042, 10.76823338735818503, 77.70000000000000284 ) ) ;
#707 = DIRECTION ( 'NONE',  ( 0.000000000000000000, 0.000000000000000000, 1.000000000000000000 ) ) ;
#708 = ADVANCED_BREP_SHAPE_REPRESENTATION ( 'Cover', ( #395, #819 ), #798 ) ;
#709 = ORIENTED_EDGE ( 'NONE', *, *, #114, .F. ) ;
#710 = CARTESIAN_POINT ( 'NONE',  ( 77.12500000000000000, 21.50000000000000000, 79.20000000000000284 ) ) ;
#711 = ORIENTED_EDGE ( 'NONE', *, *, #46, .T. ) ;
#712 = CYLINDRICAL_SURFACE ( 'NONE', #766, 2.000000000000001776 ) ;
#713 = CARTESIAN_POINT ( 'NONE',  ( 0.000000000000000000, 0.000000000000000000, 79.20000000000000284 ) ) ;
#714 = DIRECTION ( 'NONE',  ( -0.000000000000000000, -0.000000000000000000, 1.000000000000000000 ) ) ;
#715 = CARTESIAN_POINT ( 'NONE',  ( 85.89323338735817970, 10.58561050272418314, 77.70000000000000284 ) ) ;
#716 = VERTEX_POINT ( 'NONE', #251 ) ;
#717 = CARTESIAN_POINT ( 'NONE',  ( -1.469576158976823947E-15, -12.00000000000000000, 89.20000000000000284 ) ) ;
#718 = AXIS2_PLACEMENT_3D ( 'NONE', #217, #956, #1146 ) ;
#719 = EDGE_CURVE ( 'NONE', #568, #478, #487, .T. ) ;
#720 = LINE ( 'NONE', #346, #576 ) ;
#721 = LINE ( 'NONE', #733, #701 ) ;
#722 = AXIS2_PLACEMENT_3D ( 'NONE', #319, #800, #139 ) ;
#723 = VERTEX_POINT ( 'NONE', #424 ) ;
#724 = CARTESIAN_POINT ( 'NONE',  ( 0.000000000000000000, 0.000000000000000000, 79.20000000000000284 ) ) ;
#725 = CIRCLE ( 'NONE', #1150, 2.000000000000001776 ) ;
#726 = ADVANCED_FACE ( 'NONE', ( #1167 ), #992, .F. ) ;
#727 = AXIS2_PLACEMENT_3D ( 'NONE', #902, #430, #1009 ) ;
#728 = DIRECTION ( 'NONE',  ( 0.000000000000000000, 0.000000000000000000, 1.000000000000000000 ) ) ;
#729 = EDGE_LOOP ( 'NONE', ( #294, #961, #881, #445 ) ) ;
#730 = ORIENTED_EDGE ( 'NONE', *, *, #778, .F. ) ;
#731 = CARTESIAN_POINT ( 'NONE',  ( 20.92861960804579624, 12.40938682214885880, 89.20000000000000284 ) ) ;
#732 = FILL_AREA_STYLE ('',( #1096 ) ) ;
#733 = CARTESIAN_POINT ( 'NONE',  ( 57.29282491146929601, 11.72006937418067096, 79.20000000000000284 ) ) ;
#734 = EDGE_CURVE ( 'NONE', #573, #403, #162, .T. ) ;
#735 = ORIENTED_EDGE ( 'NONE', *, *, #468, .F. ) ;
#736 = CYLINDRICAL_SURFACE ( 'NONE', #10, 20.00000000000000355 ) ;
#737 = SURFACE_SIDE_STYLE ('',( #813 ) ) ;
#738 = ORIENTED_EDGE ( 'NONE', *, *, #505, .T. ) ;
#739 = EDGE_CURVE ( 'NONE', #591, #786, #68, .T. ) ;
#740 = ORIENTED_EDGE ( 'NONE', *, *, #456, .F. ) ;
#741 = CARTESIAN_POINT ( 'NONE',  ( 20.98696644759190377, -9.409954268095530594, 89.20000000000000284 ) ) ;
#742 = VECTOR ( 'NONE', #607, 1000.000000000000000 ) ;
#743 = DIRECTION ( 'NONE',  ( 0.000000000000000000, 0.000000000000000000, 1.000000000000000000 ) ) ;
#744 = CARTESIAN_POINT ( 'NONE',  ( 87.89323338735819391, 10.58561050272418314, 77.70000000000000284 ) ) ;
#745 = CIRCLE ( 'NONE', #51, 20.00000000000000355 ) ;
#746 = ORIENTED_EDGE ( 'NONE', *, *, #603, .T. ) ;
#747 = DIRECTION ( 'NONE',  ( -0.8446294373469517280, 0.5353513926076699514, 0.000000000000000000 ) ) ;
#748 = CARTESIAN_POINT ( 'NONE',  ( 66.35676661264180609, -10.58561050272418136, 77.70000000000000284 ) ) ;
#749 = DIRECTION ( 'NONE',  ( 0.000000000000000000, 0.000000000000000000, -1.000000000000000000 ) ) ;
#750 = ORIENTED_EDGE ( 'NONE', *, *, #1156, .T. ) ;
#751 = DIRECTION ( 'NONE',  ( 0.000000000000000000, 0.000000000000000000, 1.000000000000000000 ) ) ;
#752 = VERTEX_POINT ( 'NONE', #170 ) ;
#753 = ADVANCED_FACE ( 'NONE', ( #525 ), #712, .F. ) ;
#754 = CARTESIAN_POINT ( 'NONE',  ( 20.98696644759190377, -9.409954268095530594, 79.20000000000000284 ) ) ;
#755 = VECTOR ( 'NONE', #1005, 1000.000000000000000 ) ;
#756 = DIRECTION ( 'NONE',  ( 0.000000000000000000, -1.000000000000000000, 0.000000000000000000 ) ) ;
#757 = ORIENTED_EDGE ( 'NONE', *, *, #179, .F. ) ;
#758 = DIRECTION ( 'NONE',  ( -0.8446294373469527272, -0.5353513926076686191, 0.000000000000000000 ) ) ;
#759 = ORIENTED_EDGE ( 'NONE', *, *, #965, .T. ) ;
#760 = CIRCLE ( 'NONE', #357, 2.000000000000001776 ) ;
#761 = CIRCLE ( 'NONE', #104, 12.00000000000000000 ) ;
#762 = VECTOR ( 'NONE', #1026, 1000.000000000000114 ) ;
#763 = EDGE_CURVE ( 'NONE', #24, #938, #1195, .T. ) ;
#764 = AXIS2_PLACEMENT_3D ( 'NONE', #345, #624, #1088 ) ;
#765 = CARTESIAN_POINT ( 'NONE',  ( -1.714505518806294638E-15, -14.00000000000000000, 86.20000000000001705 ) ) ;
#766 = AXIS2_PLACEMENT_3D ( 'NONE', #441, #617, #73 ) ;
#767 = ORIENTED_EDGE ( 'NONE', *, *, #951, .F. ) ;
#768 = DIRECTION ( 'NONE',  ( 0.000000000000000000, 0.000000000000000000, 1.000000000000000000 ) ) ;
#769 = VERTEX_POINT ( 'NONE', #731 ) ;
#770 = EDGE_CURVE ( 'NONE', #371, #454, #1025, .T. ) ;
#771 = DIRECTION ( 'NONE',  ( 1.000000000000000000, 0.000000000000000000, 0.000000000000000000 ) ) ;
#772 = EDGE_CURVE ( 'NONE', #1158, #344, #745, .T. ) ;
#773 = ORIENTED_EDGE ( 'NONE', *, *, #1071, .F. ) ;
#774 = DIRECTION ( 'NONE',  ( 0.000000000000000000, 1.000000000000000000, 0.000000000000000000 ) ) ;
#775 = FACE_OUTER_BOUND ( 'NONE', #417, .T. ) ;
#776 = ORIENTED_EDGE ( 'NONE', *, *, #261, .T. ) ;
#777 = CYLINDRICAL_SURFACE ( 'NONE', #120, 2.999999999999996891 ) ;
#778 = EDGE_CURVE ( 'NONE', #398, #1008, #903, .T. ) ;
#779 = CARTESIAN_POINT ( 'NONE',  ( 18.45307813555104559, 11.01600844591851036, 79.20000000000000284 ) ) ;
#780 = VECTOR ( 'NONE', #558, 1000.000000000000000 ) ;
#781 = CIRCLE ( 'NONE', #502, 3.000000000000001332 ) ;
#782 = PLANE ( 'NONE',  #358 ) ;
#783 = CIRCLE ( 'NONE', #185, 2.000000000000001776 ) ;
#784 = EDGE_LOOP ( 'NONE', ( #503, #1180, #434, #833 ) ) ;
#785 = LINE ( 'NONE', #710, #998 ) ;
#786 = VERTEX_POINT ( 'NONE', #363 ) ;
#787 = ADVANCED_FACE ( 'NONE', ( #933 ), #265, .F. ) ;
#788 = FACE_BOUND ( 'NONE', #559, .T. ) ;
#789 = DIRECTION ( 'NONE',  ( 0.000000000000000000, 0.000000000000000000, -1.000000000000000000 ) ) ;
#790 = ORIENTED_EDGE ( 'NONE', *, *, #1187, .F. ) ;
#791 = DIRECTION ( 'NONE',  ( 0.000000000000000000, 1.000000000000000000, 0.000000000000000000 ) ) ;
#792 = ORIENTED_EDGE ( 'NONE', *, *, #181, .F. ) ;
#793 = CARTESIAN_POINT ( 'NONE',  ( 77.12500000000000000, 10.09999999999999964, 89.20000000000000284 ) ) ;
#794 = CARTESIAN_POINT ( 'NONE',  ( 85.71061050272420800, -10.76823338735817970, 77.70000000000000284 ) ) ;
#795 = ORIENTED_EDGE ( 'NONE', *, *, #8, .F. ) ;
#796 = CARTESIAN_POINT ( 'NONE',  ( 57.29282491146929601, 11.72006937418067274, 79.20000000000000284 ) ) ;
#797 = EDGE_LOOP ( 'NONE', ( #705, #1152, #1100, #1145, #871, #149, #671, #1028, #248, #44, #137, #1110 ) ) ;
#798 =( GEOMETRIC_REPRESENTATION_CONTEXT ( 3 ) GLOBAL_UNCERTAINTY_ASSIGNED_CONTEXT ( ( #1139 ) ) GLOBAL_UNIT_ASSIGNED_CONTEXT ( ( #361, #647, #88 ) ) REPRESENTATION_CONTEXT ( 'NONE', 'WORKASPACE' ) );
#799 = DIRECTION ( 'NONE',  ( -1.000000000000000000, 0.000000000000000000, 0.000000000000000000 ) ) ;
#800 = DIRECTION ( 'NONE',  ( 0.000000000000000000, 0.000000000000000000, 1.000000000000000000 ) ) ;
#801 = CIRCLE ( 'NONE', #1132, 3.000000000000001332 ) ;
#802 = ORIENTED_EDGE ( 'NONE', *, *, #55, .F. ) ;
#803 = LINE ( 'NONE', #1153, #618 ) ;
#804 = ORIENTED_EDGE ( 'NONE', *, *, #275, .T. ) ;
#805 = CARTESIAN_POINT ( 'NONE',  ( 18.45307813555104559, -11.01600844591853701, 79.20000000000000284 ) ) ;
#806 = AXIS2_PLACEMENT_3D ( 'NONE', #724, #277, #9 ) ;
#807 =( NAMED_UNIT ( * ) SI_UNIT ( $, .STERADIAN. ) SOLID_ANGLE_UNIT ( ) );
#808 = DIRECTION ( 'NONE',  ( 0.000000000000000000, 0.000000000000000000, 1.000000000000000000 ) ) ;
#809 = DIRECTION ( 'NONE',  ( 0.9998108513511149154, -0.01944894651539719882, 0.000000000000000000 ) ) ;
#810 = EDGE_CURVE ( 'NONE', #1099, #919, #928, .T. ) ;
#811 = ORIENTED_EDGE ( 'NONE', *, *, #922, .T. ) ;
#812 = DIRECTION ( 'NONE',  ( -0.8446294373469517280, 0.5353513926076699514, 0.000000000000000000 ) ) ;
#813 = SURFACE_STYLE_FILL_AREA ( #732 ) ;
#814 = ORIENTED_EDGE ( 'NONE', *, *, #965, .F. ) ;
#815 = PRODUCT_CONTEXT ( 'NONE', #164, 'mechanical' ) ;
#816 = ORIENTED_EDGE ( 'NONE', *, *, #1108, .T. ) ;
#817 = DIRECTION ( 'NONE',  ( 0.000000000000000000, 1.000000000000000000, 0.000000000000000000 ) ) ;
#818 = EDGE_CURVE ( 'NONE', #786, #40, #564, .T. ) ;
#819 = AXIS2_PLACEMENT_3D ( 'NONE', #282, #527, #926 ) ;
#820 = AXIS2_PLACEMENT_3D ( 'NONE', #1004, #168, #526 ) ;
#821 = DIRECTION ( 'NONE',  ( 0.000000000000000000, 0.000000000000000000, 1.000000000000000000 ) ) ;
#822 = COLOUR_RGB ( '',0.7921568627450980005, 0.8196078431372548767, 0.9333333333333333481 ) ;
#823 = VERTEX_POINT ( 'NONE', #642 ) ;
#824 = CARTESIAN_POINT ( 'NONE',  ( 76.70684764991895577, -21.49593330404900016, 79.20000000000000284 ) ) ;
#825 = CIRCLE ( 'NONE', #453, 12.00000000000000000 ) ;
#826 = CARTESIAN_POINT ( 'NONE',  ( -1.469576158976823947E-15, -12.00000000000000000, 86.20000000000001705 ) ) ;
#827 = ORIENTED_EDGE ( 'NONE', *, *, #98, .T. ) ;
#828 = ORIENTED_EDGE ( 'NONE', *, *, #76, .T. ) ;
#829 = CARTESIAN_POINT ( 'NONE',  ( 20.92861960804579624, 12.40938682214885880, 79.20000000000000284 ) ) ;
#830 = DIRECTION ( 'NONE',  ( 0.000000000000000000, 0.000000000000000000, -1.000000000000000000 ) ) ;
#831 = EDGE_CURVE ( 'NONE', #988, #161, #1061, .T. ) ;
#832 = ORIENTED_EDGE ( 'NONE', *, *, #1136, .T. ) ;
#833 = ORIENTED_EDGE ( 'NONE', *, *, #267, .T. ) ;
#834 = DIRECTION ( 'NONE',  ( 0.000000000000000000, 1.000000000000000000, 0.000000000000000000 ) ) ;
#835 = CARTESIAN_POINT ( 'NONE',  ( 18.45307813555104559, -11.01600844591853523, 79.20000000000000284 ) ) ;
#836 = DIRECTION ( 'NONE',  ( -0.9998108513511149154, 0.01944894651539719882, 0.000000000000000000 ) ) ;
#837 = AXIS2_PLACEMENT_3D ( 'NONE', #273, #1027, #1022 ) ;
#838 = EDGE_LOOP ( 'NONE', ( #264, #522 ) ) ;
#839 = CARTESIAN_POINT ( 'NONE',  ( 57.52404622943284807, -8.834738891675801398, 79.20000000000000284 ) ) ;
#840 = AXIS2_PLACEMENT_3D ( 'NONE', #152, #223, #64 ) ;
#841 = AXIS2_PLACEMENT_3D ( 'NONE', #158, #535, #530 ) ;
#842 = AXIS2_PLACEMENT_3D ( 'NONE', #529, #337, #799 ) ;
#843 = CARTESIAN_POINT ( 'NONE',  ( 57.80774915679204184, 21.12829621020735260, 89.20000000000000284 ) ) ;
#844 = FACE_OUTER_BOUND ( 'NONE', #496, .T. ) ;
#845 = ORIENTED_EDGE ( 'NONE', *, *, #1095, .F. ) ;
#846 = DIRECTION ( 'NONE',  ( 0.8345984957439479546, 0.5508587395167107159, 0.000000000000000000 ) ) ;
#847 = EDGE_CURVE ( 'NONE', #1074, #1164, #32, .T. ) ;
#848 = CARTESIAN_POINT ( 'NONE',  ( 77.12500000000000000, -21.50000000000000000, 77.70000000000000284 ) ) ;
#849 = CARTESIAN_POINT ( 'NONE',  ( 68.53938949727582042, 10.76823338735818503, 77.70000000000000284 ) ) ;
#850 = ORIENTED_EDGE ( 'NONE', *, *, #532, .F. ) ;
#851 = CARTESIAN_POINT ( 'NONE',  ( 57.52404622943284807, 8.834738891675801398, 79.20000000000000284 ) ) ;
#852 = ADVANCED_FACE ( 'NONE', ( #378 ), #14, .F. ) ;
#853 = AXIS2_PLACEMENT_3D ( 'NONE', #479, #856, #307 ) ;
#854 = LINE ( 'NONE', #308, #238 ) ;
#855 = ORIENTED_EDGE ( 'NONE', *, *, #913, .T. ) ;
#856 = DIRECTION ( 'NONE',  ( 0.000000000000000000, 0.000000000000000000, -1.000000000000000000 ) ) ;
#857 = ORIENTED_EDGE ( 'NONE', *, *, #426, .F. ) ;
#858 = CIRCLE ( 'NONE', #335, 1.999999999999988010 ) ;
#859 = AXIS2_PLACEMENT_3D ( 'NONE', #146, #789, #325 ) ;
#860 = DIRECTION ( 'NONE',  ( 0.000000000000000000, 1.000000000000000000, 0.000000000000000000 ) ) ;
#861 = AXIS2_PLACEMENT_3D ( 'NONE', #631, #1186, #1106 ) ;
#862 = EDGE_LOOP ( 'NONE', ( #750, #135, #415, #740 ) ) ;
#863 = CYLINDRICAL_SURFACE ( 'NONE', #934, 2.999999999999996891 ) ;
#864 = FACE_BOUND ( 'NONE', #169, .T. ) ;
#865 = EDGE_CURVE ( 'NONE', #478, #769, #636, .T. ) ;
#866 = ORIENTED_EDGE ( 'NONE', *, *, #13, .F. ) ;
#867 = LINE ( 'NONE', #1052, #638 ) ;
#868 = FACE_BOUND ( 'NONE', #1137, .T. ) ;
#869 = DIRECTION ( 'NONE',  ( 0.000000000000000000, 0.000000000000000000, 1.000000000000000000 ) ) ;
#870 = AXIS2_PLACEMENT_3D ( 'NONE', #130, #485, #758 ) ;
#871 = ORIENTED_EDGE ( 'NONE', *, *, #1163, .T. ) ;
#872 = DIRECTION ( 'NONE',  ( 0.000000000000000000, 0.000000000000000000, 1.000000000000000000 ) ) ;
#873 = EDGE_LOOP ( 'NONE', ( #580, #370, #360, #388 ) ) ;
#874 = DIRECTION ( 'NONE',  ( 0.000000000000000000, 0.000000000000000000, -1.000000000000000000 ) ) ;
#875 = VECTOR ( 'NONE', #1090, 1000.000000000000114 ) ;
#876 = PRESENTATION_LAYER_ASSIGNMENT (  '', '', ( #299 ) ) ;
#877 = CARTESIAN_POINT ( 'NONE',  ( 54.73068258469125169, -13.06692570968390044, 79.20000000000000284 ) ) ;
#878 = ORIENTED_EDGE ( 'NONE', *, *, #46, .F. ) ;
#879 = DIRECTION ( 'NONE',  ( 0.000000000000000000, 1.000000000000000000, 0.000000000000000000 ) ) ;
#880 = AXIS2_PLACEMENT_3D ( 'NONE', #560, #192, #747 ) ;
#881 = ORIENTED_EDGE ( 'NONE', *, *, #818, .T. ) ;
#882 = DIRECTION ( 'NONE',  ( 0.000000000000000000, 0.000000000000000000, 1.000000000000000000 ) ) ;
#883 = EDGE_CURVE ( 'NONE', #949, #565, #508, .T. ) ;
#884 = CARTESIAN_POINT ( 'NONE',  ( 87.71061050272419379, -10.76823338735817970, 77.70000000000000284 ) ) ;
#885 = EDGE_LOOP ( 'NONE', ( #320, #106, #174, #677 ) ) ;
#886 = CARTESIAN_POINT ( 'NONE',  ( 77.12500000000000000, 0.000000000000000000, 89.20000000000000284 ) ) ;
#887 = EDGE_LOOP ( 'NONE', ( #1119, #1033, #804, #129 ) ) ;
#888 = DIRECTION ( 'NONE',  ( 0.000000000000000000, 0.000000000000000000, -1.000000000000000000 ) ) ;
#889 = EDGE_CURVE ( 'NONE', #40, #1048, #1019, .T. ) ;
#890 = DIRECTION ( 'NONE',  ( 0.000000000000000000, 0.000000000000000000, -1.000000000000000000 ) ) ;
#891 = VERTEX_POINT ( 'NONE', #470 ) ;
#892 = LINE ( 'NONE', #428, #594 ) ;
#893 = ORIENTED_EDGE ( 'NONE', *, *, #810, .T. ) ;
#894 = CIRCLE ( 'NONE', #853, 2.999999999999996891 ) ;
#895 = CARTESIAN_POINT ( 'NONE',  ( 64.35676661264180609, -10.58561050272418136, 77.70000000000000284 ) ) ;
#896 = CARTESIAN_POINT ( 'NONE',  ( 20.92861960804579624, 12.40938682214885880, 79.20000000000000284 ) ) ;
#897 = ADVANCED_FACE ( 'NONE', ( #356 ), #1194, .F. ) ;
#898 = CIRCLE ( 'NONE', #918, 2.999999999999996891 ) ;
#899 = EDGE_LOOP ( 'NONE', ( #3, #377, #585, #296 ) ) ;
#900 = CARTESIAN_POINT ( 'NONE',  ( 0.000000000000000000, 12.00000000000000000, 86.20000000000001705 ) ) ;
#901 = ORIENTED_EDGE ( 'NONE', *, *, #213, .F. ) ;
#902 = CARTESIAN_POINT ( 'NONE',  ( 77.12500000000000000, 0.000000000000000000, 79.20000000000000284 ) ) ;
#903 = CIRCLE ( 'NONE', #241, 2.000000000000001776 ) ;
#904 = CARTESIAN_POINT ( 'NONE',  ( 89.89323338735819391, 10.58561050272418314, 89.20000000000000284 ) ) ;
#905 = EDGE_CURVE ( 'NONE', #190, #945, #127, .T. ) ;
#906 = DIRECTION ( 'NONE',  ( 0.01944894651539719882, 0.9998108513511149154, 0.000000000000000000 ) ) ;
#907 = ORIENTED_EDGE ( 'NONE', *, *, #126, .T. ) ;
#908 = DIRECTION ( 'NONE',  ( 0.000000000000000000, -1.000000000000000000, 0.000000000000000000 ) ) ;
#909 = CARTESIAN_POINT ( 'NONE',  ( 76.70684764991895577, 21.49593330404894687, 89.20000000000000284 ) ) ;
#910 = ADVANCED_FACE ( 'NONE', ( #368 ), #736, .T. ) ;
#911 = ORIENTED_EDGE ( 'NONE', *, *, #929, .F. ) ;
#912 = DIRECTION ( 'NONE',  ( -0.01944894651539729596, 0.9998108513511148043, 0.000000000000000000 ) ) ;
#913 = EDGE_CURVE ( 'NONE', #454, #1099, #972, .T. ) ;
#914 = AXIS2_PLACEMENT_3D ( 'NONE', #187, #548, #96 ) ;
#915 = CARTESIAN_POINT ( 'NONE',  ( 77.12500000000000000, -21.50000000000000000, 89.20000000000000284 ) ) ;
#916 = CIRCLE ( 'NONE', #1076, 2.000000000000001776 ) ;
#917 = LINE ( 'NONE', #366, #142 ) ;
#918 = AXIS2_PLACEMENT_3D ( 'NONE', #979, #869, #1060 ) ;
#919 = VERTEX_POINT ( 'NONE', #459 ) ;
#920 = DIRECTION ( 'NONE',  ( 0.000000000000000000, 0.000000000000000000, 1.000000000000000000 ) ) ;
#921 = AXIS2_PLACEMENT_3D ( 'NONE', #1161, #329, #237 ) ;
#922 = EDGE_CURVE ( 'NONE', #533, #398, #284, .T. ) ;
#923 = VECTOR ( 'NONE', #56, 1000.000000000000000 ) ;
#924 = CARTESIAN_POINT ( 'NONE',  ( 87.89323338735819391, 10.58561050272418314, 77.70000000000000284 ) ) ;
#925 = DIRECTION ( 'NONE',  ( 0.000000000000000000, 0.000000000000000000, 1.000000000000000000 ) ) ;
#926 = DIRECTION ( 'NONE',  ( 1.000000000000000000, 0.000000000000000000, 0.000000000000000000 ) ) ;
#927 = ORIENTED_EDGE ( 'NONE', *, *, #1121, .T. ) ;
#928 = LINE ( 'NONE', #824, #379 ) ;
#929 = EDGE_CURVE ( 'NONE', #191, #190, #867, .T. ) ;
#930 = DIRECTION ( 'NONE',  ( 0.000000000000000000, 1.000000000000000000, 0.000000000000000000 ) ) ;
#931 = CARTESIAN_POINT ( 'NONE',  ( 20.98696644759190377, -9.409954268095530594, 79.20000000000000284 ) ) ;
#932 = ORIENTED_EDGE ( 'NONE', *, *, #670, .F. ) ;
#933 = FACE_OUTER_BOUND ( 'NONE', #997, .T. ) ;
#934 = AXIS2_PLACEMENT_3D ( 'NONE', #310, #35, #675 ) ;
#935 = DIRECTION ( 'NONE',  ( 1.000000000000000000, 0.000000000000000000, 0.000000000000000000 ) ) ;
#936 = CARTESIAN_POINT ( 'NONE',  ( 77.12500000000000000, -10.09999999999999964, 77.70000000000000284 ) ) ;
#937 = ADVANCED_FACE ( 'NONE', ( #667 ), #777, .F. ) ;
#938 = VERTEX_POINT ( 'NONE', #851 ) ;
#939 = CARTESIAN_POINT ( 'NONE',  ( 49.59832299471049311, -12.96708783832209910, 89.20000000000000284 ) ) ;
#940 = VECTOR ( 'NONE', #509, 1000.000000000000000 ) ;
#941 = DIRECTION ( 'NONE',  ( -0.8446294373469517280, 0.5353513926076699514, 0.000000000000000000 ) ) ;
#942 = VECTOR ( 'NONE', #519, 1000.000000000000000 ) ;
#943 = CARTESIAN_POINT ( 'NONE',  ( 77.12500000000000000, 0.000000000000000000, 89.20000000000000284 ) ) ;
#944 = ADVANCED_FACE ( 'NONE', ( #124 ), #383, .F. ) ;
#945 = VERTEX_POINT ( 'NONE', #1063 ) ;
#946 = CYLINDRICAL_SURFACE ( 'NONE', #274, 2.000000000000001776 ) ;
#947 = APPLICATION_CONTEXT ( 'automotive_design' ) ;
#948 = DIRECTION ( 'NONE',  ( 0.8345984957439479546, -0.5508587395167107159, 0.000000000000000000 ) ) ;
#949 = VERTEX_POINT ( 'NONE', #586 ) ;
#950 = DIRECTION ( 'NONE',  ( 0.000000000000000000, 0.000000000000000000, 1.000000000000000000 ) ) ;
#951 = EDGE_CURVE ( 'NONE', #1080, #161, #39, .T. ) ;
#952 = ORIENTED_EDGE ( 'NONE', *, *, #650, .T. ) ;
#953 = PRODUCT_DEFINITION_FORMATION_WITH_SPECIFIED_SOURCE ( 'ANY', '', #494, .NOT_KNOWN. ) ;
#954 = LINE ( 'NONE', #467, #780 ) ;
#955 = ORIENTED_EDGE ( 'NONE', *, *, #6, .T. ) ;
#956 = DIRECTION ( 'NONE',  ( 0.000000000000000000, 0.000000000000000000, 1.000000000000000000 ) ) ;
#957 = VERTEX_POINT ( 'NONE', #968 ) ;
#958 = VECTOR ( 'NONE', #836, 1000.000000000000114 ) ;
#959 = ADVANCED_FACE ( 'NONE', ( #295 ), #658, .F. ) ;
#960 = DIRECTION ( 'NONE',  ( -0.000000000000000000, -0.000000000000000000, 1.000000000000000000 ) ) ;
#961 = ORIENTED_EDGE ( 'NONE', *, *, #739, .T. ) ;
#962 = CARTESIAN_POINT ( 'NONE',  ( 77.12500000000000000, 0.000000000000000000, 79.20000000000000284 ) ) ;
#963 = ORIENTED_EDGE ( 'NONE', *, *, #929, .T. ) ;
#964 = DIRECTION ( 'NONE',  ( 0.000000000000000000, 0.000000000000000000, 1.000000000000000000 ) ) ;
#965 = EDGE_CURVE ( 'NONE', #454, #301, #214, .T. ) ;
#966 = CARTESIAN_POINT ( 'NONE',  ( 18.24953604138439900, -8.182568928778708894, 79.20000000000000284 ) ) ;
#967 = ORIENTED_EDGE ( 'NONE', *, *, #31, .F. ) ;
#968 = CARTESIAN_POINT ( 'NONE',  ( 68.35676661264180609, -10.58561050272418136, 77.70000000000000284 ) ) ;
#969 = ORIENTED_EDGE ( 'NONE', *, *, #734, .F. ) ;
#970 = FACE_OUTER_BOUND ( 'NONE', #729, .T. ) ;
#971 = DIRECTION ( 'NONE',  ( -0.8446294373469527272, -0.5353513926076686191, 0.000000000000000000 ) ) ;
#972 = CIRCLE ( 'NONE', #914, 21.50000000000000000 ) ;
#973 = ADVANCED_FACE ( 'NONE', ( #569 ), #946, .F. ) ;
#974 = EDGE_LOOP ( 'NONE', ( #36, #207 ) ) ;
#975 = CARTESIAN_POINT ( 'NONE',  ( 64.53938949727582042, 10.76823338735818503, 89.20000000000000284 ) ) ;
#976 = ORIENTED_EDGE ( 'NONE', *, *, #1171, .F. ) ;
#977 = DIRECTION ( 'NONE',  ( 0.8345984957439479546, -0.5508587395167107159, 0.000000000000000000 ) ) ;
#978 = MECHANICAL_DESIGN_GEOMETRIC_PRESENTATION_REPRESENTATION (  '', ( #299 ), #280 ) ;
#979 = CARTESIAN_POINT ( 'NONE',  ( 54.78902942423745515, -10.06749315563054026, 89.20000000000000284 ) ) ;
#980 = AXIS2_PLACEMENT_3D ( 'NONE', #1044, #661, #941 ) ;
#981 = ORIENTED_EDGE ( 'NONE', *, *, #62, .F. ) ;
#982 = CARTESIAN_POINT ( 'NONE',  ( 54.78902942423745515, 10.06749315563054026, 89.20000000000000284 ) ) ;
#983 = EDGE_CURVE ( 'NONE', #938, #752, #225, .T. ) ;
#984 = VECTOR ( 'NONE', #78, 1000.000000000000000 ) ;
#985 = ORIENTED_EDGE ( 'NONE', *, *, #1089, .F. ) ;
#986 = CYLINDRICAL_SURFACE ( 'NONE', #286, 2.000000000000001776 ) ;
#987 = CYLINDRICAL_SURFACE ( 'NONE', #49, 1.999999999999988010 ) ;
#988 = VERTEX_POINT ( 'NONE', #1125 ) ;
#989 = DIRECTION ( 'NONE',  ( 0.000000000000000000, -1.000000000000000000, 0.000000000000000000 ) ) ;
#990 = ORIENTED_EDGE ( 'NONE', *, *, #1071, .T. ) ;
#991 = ADVANCED_FACE ( 'NONE', ( #1049 ), #1041, .F. ) ;
#992 = CYLINDRICAL_SURFACE ( 'NONE', #727, 10.09999999999999964 ) ;
#993 = ADVANCED_FACE ( 'NONE', ( #566 ), #475, .F. ) ;
#994 = CARTESIAN_POINT ( 'NONE',  ( 20.98696644759190377, 9.409954268095500396, 79.20000000000000284 ) ) ;
#995 = EDGE_LOOP ( 'NONE', ( #845, #531 ) ) ;
#996 = CARTESIAN_POINT ( 'NONE',  ( -1.714505518806294638E-15, -14.00000000000000000, 79.20000000000000284 ) ) ;
#997 = EDGE_LOOP ( 'NONE', ( #668, #1105, #630, #28 ) ) ;
#998 = VECTOR ( 'NONE', #615, 1000.000000000000000 ) ;
#999 = CARTESIAN_POINT ( 'NONE',  ( 0.000000000000000000, 0.000000000000000000, 89.20000000000000284 ) ) ;
#1000 = ADVANCED_FACE ( 'NONE', ( #1131 ), #302, .T. ) ;
#1001 = DIRECTION ( 'NONE',  ( -0.8446294373469517280, 0.5353513926076699514, 0.000000000000000000 ) ) ;
#1002 = CIRCLE ( 'NONE', #316, 2.000000000000001776 ) ;
#1003 = AXIS2_PLACEMENT_3D ( 'NONE', #713, #92, #544 ) ;
#1004 = CARTESIAN_POINT ( 'NONE',  ( 87.89323338735819391, 10.58561050272418314, 77.70000000000000284 ) ) ;
#1005 = DIRECTION ( 'NONE',  ( 0.000000000000000000, 0.000000000000000000, -1.000000000000000000 ) ) ;
#1006 = CIRCLE ( 'NONE', #374, 2.000000000000001776 ) ;
#1007 = AXIS2_PLACEMENT_3D ( 'NONE', #606, #1075, #977 ) ;
#1008 = VERTEX_POINT ( 'NONE', #117 ) ;
#1009 = DIRECTION ( 'NONE',  ( 0.000000000000000000, 1.000000000000000000, 0.000000000000000000 ) ) ;
#1010 = CARTESIAN_POINT ( 'NONE',  ( 64.35676661264180609, -10.58561050272418136, 89.20000000000000284 ) ) ;
#1011 = EDGE_CURVE ( 'NONE', #333, #1160, #894, .T. ) ;
#1012 = DIRECTION ( 'NONE',  ( 1.000000000000000000, 0.000000000000000000, 0.000000000000000000 ) ) ;
#1013 = VERTEX_POINT ( 'NONE', #672 ) ;
#1014 = CARTESIAN_POINT ( 'NONE',  ( 0.000000000000000000, 0.000000000000000000, 79.20000000000000284 ) ) ;
#1015 = DIRECTION ( 'NONE',  ( 0.000000000000000000, 0.000000000000000000, 1.000000000000000000 ) ) ;
#1016 = ORIENTED_EDGE ( 'NONE', *, *, #157, .F. ) ;
#1017 = ADVANCED_FACE ( 'NONE', ( #1142 ), #863, .F. ) ;
#1018 = ORIENTED_EDGE ( 'NONE', *, *, #261, .F. ) ;
#1019 = LINE ( 'NONE', #939, #1174 ) ;
#1020 = CIRCLE ( 'NONE', #480, 2.999999999999996891 ) ;
#1021 = DIRECTION ( 'NONE',  ( 1.000000000000000000, 0.000000000000000000, 0.000000000000000000 ) ) ;
#1022 = DIRECTION ( 'NONE',  ( 0.8345984957439479546, 0.5508587395167107159, 0.000000000000000000 ) ) ;
#1023 = CIRCLE ( 'NONE', #1097, 21.50000000000000000 ) ;
#1024 = ORIENTED_EDGE ( 'NONE', *, *, #770, .T. ) ;
#1025 = LINE ( 'NONE', #839, #91 ) ;
#1026 = DIRECTION ( 'NONE',  ( 0.9998108513511149154, 0.01944894651539709474, 0.000000000000000000 ) ) ;
#1027 = DIRECTION ( 'NONE',  ( 0.000000000000000000, 0.000000000000000000, -1.000000000000000000 ) ) ;
#1028 = ORIENTED_EDGE ( 'NONE', *, *, #770, .F. ) ;
#1029 = DIRECTION ( 'NONE',  ( -0.01944894651539729596, -0.9998108513511148043, 0.000000000000000000 ) ) ;
#1030 = ADVANCED_FACE ( 'NONE', ( #1056 ), #490, .T. ) ;
#1031 = DIRECTION ( 'NONE',  ( 0.000000000000000000, 0.000000000000000000, -1.000000000000000000 ) ) ;
#1032 = DIRECTION ( 'NONE',  ( 0.000000000000000000, 0.000000000000000000, 1.000000000000000000 ) ) ;
#1033 = ORIENTED_EDGE ( 'NONE', *, *, #291, .T. ) ;
#1034 = DIRECTION ( 'NONE',  ( 0.000000000000000000, 0.000000000000000000, 1.000000000000000000 ) ) ;
#1035 = CIRCLE ( 'NONE', #255, 12.00000000000000000 ) ;
#1036 = DIRECTION ( 'NONE',  ( 0.000000000000000000, 0.000000000000000000, -1.000000000000000000 ) ) ;
#1037 = ADVANCED_FACE ( 'NONE', ( #696, #689 ), #1081, .F. ) ;
#1038 = LINE ( 'NONE', #375, #620 ) ;
#1039 = CIRCLE ( 'NONE', #465, 1.999999999999988010 ) ;
#1040 = ORIENTED_EDGE ( 'NONE', *, *, #702, .T. ) ;
#1041 = CYLINDRICAL_SURFACE ( 'NONE', #1143, 2.999999999999996891 ) ;
#1042 = VERTEX_POINT ( 'NONE', #975 ) ;
#1043 = CIRCLE ( 'NONE', #1059, 21.50000000000000000 ) ;
#1044 = CARTESIAN_POINT ( 'NONE',  ( 20.98696644759190377, 9.409954268095500396, 79.20000000000000284 ) ) ;
#1045 = VECTOR ( 'NONE', #446, 1000.000000000000000 ) ;
#1046 = DIRECTION ( 'NONE',  ( 0.000000000000000000, 0.000000000000000000, 1.000000000000000000 ) ) ;
#1047 = EDGE_CURVE ( 'NONE', #1141, #489, #1035, .T. ) ;
#1048 = VERTEX_POINT ( 'NONE', #66 ) ;
#1049 = FACE_OUTER_BOUND ( 'NONE', #547, .T. ) ;
#1050 = DIRECTION ( 'NONE',  ( 0.000000000000000000, 0.000000000000000000, 1.000000000000000000 ) ) ;
#1051 = EDGE_LOOP ( 'NONE', ( #95, #512, #109, #22 ) ) ;
#1052 = CARTESIAN_POINT ( 'NONE',  ( 77.12500000000000000, -10.09999999999999964, 79.20000000000000284 ) ) ;
#1053 = ADVANCED_FACE ( 'NONE', ( #422 ), #343, .F. ) ;
#1054 = DIRECTION ( 'NONE',  ( 1.000000000000000000, 0.000000000000000000, 0.000000000000000000 ) ) ;
#1055 = ORIENTED_EDGE ( 'NONE', *, *, #134, .F. ) ;
#1056 = FACE_OUTER_BOUND ( 'NONE', #862, .T. ) ;
#1057 = EDGE_CURVE ( 'NONE', #210, #949, #785, .T. ) ;
#1058 = CIRCLE ( 'NONE', #859, 14.00000000000000000 ) ;
#1059 = AXIS2_PLACEMENT_3D ( 'NONE', #138, #373, #655 ) ;
#1060 = DIRECTION ( 'NONE',  ( 0.8345984957439479546, -0.5508587395167107159, 0.000000000000000000 ) ) ;
#1061 = CIRCLE ( 'NONE', #1102, 14.00000000000000000 ) ;
#1062 = ORIENTED_EDGE ( 'NONE', *, *, #98, .F. ) ;
#1063 = CARTESIAN_POINT ( 'NONE',  ( 77.12500000000000000, 10.09999999999999964, 77.70000000000000284 ) ) ;
#1064 = CARTESIAN_POINT ( 'NONE',  ( 0.000000000000000000, 0.000000000000000000, 79.20000000000000284 ) ) ;
#1065 = CARTESIAN_POINT ( 'NONE',  ( 77.12500000000000000, 0.000000000000000000, 77.70000000000000284 ) ) ;
#1066 = ORIENTED_EDGE ( 'NONE', *, *, #119, .F. ) ;
#1067 = CARTESIAN_POINT ( 'NONE',  ( 54.73068258469125169, -13.06692570968390044, 79.20000000000000284 ) ) ;
#1068 = ORIENTED_EDGE ( 'NONE', *, *, #151, .T. ) ;
#1069 = LINE ( 'NONE', #1083, #239 ) ;
#1070 = CARTESIAN_POINT ( 'NONE',  ( 57.52404622943284807, -8.834738891675801398, 89.20000000000000284 ) ) ;
#1071 = EDGE_CURVE ( 'NONE', #578, #1099, #154, .T. ) ;
#1072 = ORIENTED_EDGE ( 'NONE', *, *, #883, .T. ) ;
#1073 = CARTESIAN_POINT ( 'NONE',  ( 77.12500000000000000, 0.000000000000000000, 89.20000000000000284 ) ) ;
#1074 = VERTEX_POINT ( 'NONE', #327 ) ;
#1075 = DIRECTION ( 'NONE',  ( 0.000000000000000000, 0.000000000000000000, -1.000000000000000000 ) ) ;
#1076 = AXIS2_PLACEMENT_3D ( 'NONE', #744, #483, #652 ) ;
#1077 = AXIS2_PLACEMENT_3D ( 'NONE', #477, #960, #1054 ) ;
#1078 = AXIS2_PLACEMENT_3D ( 'NONE', #632, #1015, #182 ) ;
#1079 = CARTESIAN_POINT ( 'NONE',  ( 68.53938949727582042, 10.76823338735818503, 77.70000000000000284 ) ) ;
#1080 = VERTEX_POINT ( 'NONE', #996 ) ;
#1081 = PLANE ( 'NONE',  #232 ) ;
#1082 = EDGE_LOOP ( 'NONE', ( #635, #1087, #790, #228 ) ) ;
#1083 = CARTESIAN_POINT ( 'NONE',  ( 0.000000000000000000, 12.00000000000000000, 79.20000000000000284 ) ) ;
#1084 = CARTESIAN_POINT ( 'NONE',  ( -1.469576158976823947E-15, -12.00000000000000000, 79.20000000000000284 ) ) ;
#1085 = ORIENTED_EDGE ( 'NONE', *, *, #590, .F. ) ;
#1086 = LINE ( 'NONE', #1165, #1127 ) ;
#1087 = ORIENTED_EDGE ( 'NONE', *, *, #772, .T. ) ;
#1088 = DIRECTION ( 'NONE',  ( -0.01944894651539729596, 0.9998108513511148043, 0.000000000000000000 ) ) ;
#1089 = EDGE_CURVE ( 'NONE', #355, #1048, #348, .T. ) ;
#1090 = DIRECTION ( 'NONE',  ( 0.9998108513511149154, 0.01944894651539719882, 0.000000000000000000 ) ) ;
#1091 = LINE ( 'NONE', #257, #755 ) ;
#1092 = CIRCLE ( 'NONE', #557, 21.50000000000000000 ) ;
#1093 = EDGE_LOOP ( 'NONE', ( #981, #866, #116, #304 ) ) ;
#1094 = DIRECTION ( 'NONE',  ( 0.000000000000000000, 0.000000000000000000, 1.000000000000000000 ) ) ;
#1095 = EDGE_CURVE ( 'NONE', #648, #191, #462, .T. ) ;
#1096 = FILL_AREA_STYLE_COLOUR ( '', #822 ) ;
#1097 = AXIS2_PLACEMENT_3D ( 'NONE', #305, #749, #396 ) ;
#1098 = VECTOR ( 'NONE', #550, 1000.000000000000000 ) ;
#1099 = VERTEX_POINT ( 'NONE', #504 ) ;
#1100 = ORIENTED_EDGE ( 'NONE', *, *, #126, .F. ) ;
#1101 = CARTESIAN_POINT ( 'NONE',  ( 77.12500000000000000, 0.000000000000000000, 77.70000000000000284 ) ) ;
#1102 = AXIS2_PLACEMENT_3D ( 'NONE', #1111, #1115, #834 ) ;
#1103 =( NAMED_UNIT ( * ) PLANE_ANGLE_UNIT ( ) SI_UNIT ( $, .RADIAN. ) );
#1104 = ORIENTED_EDGE ( 'NONE', *, *, #582, .T. ) ;
#1105 = ORIENTED_EDGE ( 'NONE', *, *, #62, .T. ) ;
#1106 = DIRECTION ( 'NONE',  ( -0.01944894651539729596, 0.9998108513511148043, 0.000000000000000000 ) ) ;
#1107 = CYLINDRICAL_SURFACE ( 'NONE', #841, 21.50000000000000000 ) ;
#1108 = EDGE_CURVE ( 'NONE', #1175, #1008, #1086, .T. ) ;
#1109 = CARTESIAN_POINT ( 'NONE',  ( 60.13240375363249512, -13.17200337108739916, 79.20000000000000284 ) ) ;
#1110 = ORIENTED_EDGE ( 'NONE', *, *, #456, .T. ) ;
#1111 = CARTESIAN_POINT ( 'NONE',  ( 0.000000000000000000, 0.000000000000000000, 86.20000000000001705 ) ) ;
#1112 = AXIS2_PLACEMENT_3D ( 'NONE', #646, #639, #93 ) ;
#1113 = DIRECTION ( 'NONE',  ( 0.000000000000000000, 0.000000000000000000, -1.000000000000000000 ) ) ;
#1114 = AXIS2_PLACEMENT_3D ( 'NONE', #133, #707, #414 ) ;
#1115 = DIRECTION ( 'NONE',  ( 0.000000000000000000, 0.000000000000000000, -1.000000000000000000 ) ) ;
#1116 = AXIS2_PLACEMENT_3D ( 'NONE', #197, #101, #83 ) ;
#1117 = DIRECTION ( 'NONE',  ( 1.000000000000000000, 0.000000000000000000, 0.000000000000000000 ) ) ;
#1118 = CARTESIAN_POINT ( 'NONE',  ( 77.12500000000000000, 0.000000000000000000, 77.70000000000000284 ) ) ;
#1119 = ORIENTED_EDGE ( 'NONE', *, *, #739, .F. ) ;
#1120 = CARTESIAN_POINT ( 'NONE',  ( 77.12500000000000000, 0.000000000000000000, 77.70000000000000284 ) ) ;
#1121 = EDGE_CURVE ( 'NONE', #688, #823, #803, .T. ) ;
#1122 = DIRECTION ( 'NONE',  ( 0.000000000000000000, 0.000000000000000000, 1.000000000000000000 ) ) ;
#1123 = FACE_OUTER_BOUND ( 'NONE', #873, .T. ) ;
#1124 = EDGE_LOOP ( 'NONE', ( #236, #746 ) ) ;
#1125 = CARTESIAN_POINT ( 'NONE',  ( 0.000000000000000000, 14.00000000000000000, 86.20000000000001705 ) ) ;
#1126 = VERTEX_POINT ( 'NONE', #321 ) ;
#1127 = VECTOR ( 'NONE', #53, 1000.000000000000000 ) ;
#1128 = DIRECTION ( 'NONE',  ( 0.000000000000000000, -0.000000000000000000, 1.000000000000000000 ) ) ;
#1129 = DIRECTION ( 'NONE',  ( 0.000000000000000000, 0.000000000000000000, 1.000000000000000000 ) ) ;
#1130 = ORIENTED_EDGE ( 'NONE', *, *, #151, .F. ) ;
#1131 = FACE_OUTER_BOUND ( 'NONE', #429, .T. ) ;
#1132 = AXIS2_PLACEMENT_3D ( 'NONE', #994, #619, #1001 ) ;
#1133 = EDGE_LOOP ( 'NONE', ( #65, #250 ) ) ;
#1134 = CIRCLE ( 'NONE', #842, 1.999999999999988010 ) ;
#1135 = CYLINDRICAL_SURFACE ( 'NONE', #1077, 2.000000000000001776 ) ;
#1136 = EDGE_CURVE ( 'NONE', #752, #690, #1020, .T. ) ;
#1137 = EDGE_LOOP ( 'NONE', ( #469, #306 ) ) ;
#1138 = DIRECTION ( 'NONE',  ( 0.01944894651539719882, -0.9998108513511149154, 0.000000000000000000 ) ) ;
#1139 = UNCERTAINTY_MEASURE_WITH_UNIT (LENGTH_MEASURE( 1.000000000000000082E-05 ), #361, 'distance_accuracy_value', 'NONE');
#1140 = CARTESIAN_POINT ( 'NONE',  ( 18.45307813555104559, 11.01600844591851036, 79.20000000000000284 ) ) ;
#1141 = VERTEX_POINT ( 'NONE', #900 ) ;
#1142 = FACE_OUTER_BOUND ( 'NONE', #147, .T. ) ;
#1143 = AXIS2_PLACEMENT_3D ( 'NONE', #204, #113, #579 ) ;
#1144 = PLANE ( 'NONE',  #183 ) ;
#1145 = ORIENTED_EDGE ( 'NONE', *, *, #692, .F. ) ;
#1146 = DIRECTION ( 'NONE',  ( 0.000000000000000000, 1.000000000000000000, 0.000000000000000000 ) ) ;
#1147 = DIRECTION ( 'NONE',  ( 0.000000000000000000, 0.000000000000000000, 1.000000000000000000 ) ) ;
#1148 = VECTOR ( 'NONE', #364, 1000.000000000000000 ) ;
#1149 = EDGE_CURVE ( 'NONE', #191, #648, #499, .T. ) ;
#1150 = AXIS2_PLACEMENT_3D ( 'NONE', #685, #743, #588 ) ;
#1151 = FACE_OUTER_BOUND ( 'NONE', #614, .T. ) ;
#1152 = ORIENTED_EDGE ( 'NONE', *, *, #1057, .T. ) ;
#1153 = CARTESIAN_POINT ( 'NONE',  ( 89.71061050272417958, -10.76823338735817970, 77.70000000000000284 ) ) ;
#1154 = ORIENTED_EDGE ( 'NONE', *, *, #692, .T. ) ;
#1155 = CARTESIAN_POINT ( 'NONE',  ( 77.12500000000000000, 0.000000000000000000, 77.70000000000000284 ) ) ;
#1156 = EDGE_CURVE ( 'NONE', #24, #421, #334, .T. ) ;
#1157 = CARTESIAN_POINT ( 'NONE',  ( 18.24953604138439900, 8.182568928778708894, 79.20000000000000284 ) ) ;
#1158 = VERTEX_POINT ( 'NONE', #435 ) ;
#1159 = DIRECTION ( 'NONE',  ( -0.01944894651539709474, 0.9998108513511149154, 0.000000000000000000 ) ) ;
#1160 = VERTEX_POINT ( 'NONE', #796 ) ;
#1161 = CARTESIAN_POINT ( 'NONE',  ( -0.3889789303078983185, -19.99621702702229697, 79.20000000000000284 ) ) ;
#1162 = DIRECTION ( 'NONE',  ( 0.000000000000000000, 0.000000000000000000, 1.000000000000000000 ) ) ;
#1163 = EDGE_CURVE ( 'NONE', #463, #919, #1092, .T. ) ;
#1164 = VERTEX_POINT ( 'NONE', #517 ) ;
#1165 = CARTESIAN_POINT ( 'NONE',  ( 85.89323338735817970, 10.58561050272418314, 77.70000000000000284 ) ) ;
#1166 = ORIENTED_EDGE ( 'NONE', *, *, #922, .F. ) ;
#1167 = FACE_OUTER_BOUND ( 'NONE', #537, .T. ) ;
#1168 = VECTOR ( 'NONE', #687, 1000.000000000000000 ) ;
#1169 = FACE_BOUND ( 'NONE', #270, .T. ) ;
#1170 = AXIS2_PLACEMENT_3D ( 'NONE', #1064, #1031, #41 ) ;
#1171 = EDGE_CURVE ( 'NONE', #7, #769, #892, .T. ) ;
#1172 = ORIENTED_EDGE ( 'NONE', *, *, #172, .F. ) ;
#1173 = DIRECTION ( 'NONE',  ( -0.9998108513511149154, -0.01944894651539719882, 0.000000000000000000 ) ) ;
#1174 = VECTOR ( 'NONE', #539, 1000.000000000000114 ) ;
#1175 = VERTEX_POINT ( 'NONE', #715 ) ;
#1176 = LINE ( 'NONE', #61, #923 ) ;
#1177 = DIRECTION ( 'NONE',  ( 0.000000000000000000, 0.000000000000000000, 1.000000000000000000 ) ) ;
#1178 = CARTESIAN_POINT ( 'NONE',  ( 54.73068258469125169, 13.06692570968390044, 89.20000000000000284 ) ) ;
#1179 = DIRECTION ( 'NONE',  ( 0.8345984957439479546, 0.5508587395167107159, 0.000000000000000000 ) ) ;
#1180 = ORIENTED_EDGE ( 'NONE', *, *, #55, .T. ) ;
#1181 = CARTESIAN_POINT ( 'NONE',  ( 77.12500000000000000, 0.000000000000000000, 79.20000000000000284 ) ) ;
#1182 = LINE ( 'NONE', #171, #69 ) ;
#1183 = ORIENTED_EDGE ( 'NONE', *, *, #905, .T. ) ;
#1184 = VECTOR ( 'NONE', #649, 1000.000000000000000 ) ;
#1185 = ORIENTED_EDGE ( 'NONE', *, *, #1156, .F. ) ;
#1186 = DIRECTION ( 'NONE',  ( 0.000000000000000000, 0.000000000000000000, -1.000000000000000000 ) ) ;
#1187 = EDGE_CURVE ( 'NONE', #723, #344, #1091, .T. ) ;
#1188 = AXIS2_PLACEMENT_3D ( 'NONE', #931, #347, #629 ) ;
#1189 = CARTESIAN_POINT ( 'NONE',  ( 66.35676661264180609, -10.58561050272418136, 89.20000000000000284 ) ) ;
#1190 = CIRCLE ( 'NONE', #125, 2.999999999999996891 ) ;
#1191 = FACE_OUTER_BOUND ( 'NONE', #314, .T. ) ;
#1192 = AXIS2_PLACEMENT_3D ( 'NONE', #11, #1036, #500 ) ;
#1193 = VERTEX_POINT ( 'NONE', #640 ) ;
#1194 = CYLINDRICAL_SURFACE ( 'NONE', #806, 12.00000000000000000 ) ;
#1195 = CIRCLE ( 'NONE', #413, 21.50000000000000000 ) ;
ENDSEC;
END-ISO-10303-21;
